/* XPM */
static char *result[] = {
/* columns rows colors chars-per-pixel */
"70 70 247 2 ",
"   c #6D6B7B",
".  c #696A7C",
"X  c #726B7A",
"o  c #726C7B",
"O  c #766C7A",
"+  c #786C79",
"@  c #796D79",
"#  c #7B6D78",
"$  c #7A6D79",
"%  c #7A6D7A",
"&  c #7A6E7A",
"*  c #7E6D78",
"=  c #7D707C",
"-  c #7E717E",
";  c #C56931",
":  c #C66B33",
">  c #C76B34",
",  c #C76C34",
"<  c #C66C35",
"1  c #C76D35",
"2  c #C86C35",
"3  c #CA6D34",
"4  c #C86D36",
"5  c #C86D37",
"6  c #C96D37",
"7  c #C96E36",
"8  c #C86E37",
"9  c #C96E37",
"0  c #C96F37",
"q  c #CD6F36",
"w  c #CB6F38",
"e  c #CF753E",
"r  c #D47236",
"t  c #D57336",
"y  c #D27238",
"u  c #D27339",
"i  c #D47338",
"p  c #D57338",
"a  c #D7753B",
"s  c #D7763B",
"d  c #BC7A5F",
"f  c #98726E",
"g  c #886F76",
"h  c #806E78",
"j  c #8C7073",
"k  c #82737F",
"l  c #957373",
"z  c #AC796C",
"x  c #B87860",
"c  c #B0796A",
"v  c #D17640",
"b  c #D07744",
"n  c #D17843",
"m  c #D17943",
"M  c #D27843",
"N  c #D27B45",
"B  c #D67B44",
"V  c #D47A46",
"C  c #D77C45",
"Z  c #D47C47",
"A  c #D57F47",
"S  c #D67E48",
"D  c #D67E49",
"F  c #D77E49",
"G  c #D67F49",
"H  c #D77F49",
"J  c #D67E4A",
"K  c #D77E4A",
"L  c #D67F4A",
"P  c #D77F4A",
"I  c #D67F4B",
"U  c #D77F4B",
"Y  c #D37F4F",
"T  c #D87F49",
"R  c #D87F4A",
"E  c #D87F4B",
"W  c #D98047",
"Q  c #D68049",
"!  c #D78049",
"~  c #D6804A",
"^  c #D7804A",
"/  c #D6804B",
"(  c #D7804B",
")  c #D7804C",
"_  c #D7814C",
"`  c #D7814D",
"'  c #D7804E",
"]  c #D8804A",
"[  c #D9804A",
"{  c #D8804B",
"}  c #D9804B",
"|  c #DA804A",
" . c #DB804A",
".. c #DA814A",
"X. c #DB814A",
"o. c #DA814B",
"O. c #DB814B",
"+. c #DB824B",
"@. c #DD834A",
"#. c #DC824B",
"$. c #D8804C",
"%. c #D8814C",
"&. c #D8804D",
"*. c #D8814D",
"=. c #DA814C",
"-. c #DB824C",
";. c #D8814E",
":. c #D8814F",
">. c #DA814F",
",. c #D9824E",
"<. c #D8824F",
"1. c #D9824F",
"2. c #DB824E",
"3. c #DC824C",
"4. c #DD824C",
"5. c #DD834C",
"6. c #DE834C",
"7. c #DE834D",
"8. c #DF834D",
"9. c #DF844C",
"0. c #DF844D",
"q. c #D78050",
"w. c #D98250",
"e. c #D98350",
"r. c #D98351",
"t. c #DA8350",
"y. c #D98352",
"u. c #DA8352",
"i. c #DA8452",
"p. c #DE8652",
"a. c #DB8555",
"s. c #DB8655",
"d. c #DA8656",
"f. c #DB8656",
"g. c #DB8657",
"h. c #DB8757",
"j. c #DF8754",
"k. c #DC8756",
"l. c #DC8657",
"z. c #DC8757",
"x. c #DD8757",
"c. c #DF8855",
"v. c #DD8857",
"b. c #DF8856",
"n. c #DF8956",
"m. c #DA8658",
"M. c #DB8658",
"N. c #DB8758",
"B. c #DB8759",
"V. c #DB875A",
"C. c #DC8658",
"Z. c #DC8758",
"A. c #DD8758",
"S. c #DC8759",
"D. c #DD8759",
"F. c #DB8859",
"G. c #DC8858",
"H. c #DD8858",
"J. c #DC8859",
"K. c #DD8859",
"L. c #DD8959",
"P. c #DE8859",
"I. c #DF8959",
"U. c #DC885A",
"Y. c #DD885A",
"T. c #DE895A",
"R. c #E78749",
"E. c #E0844D",
"W. c #E1844D",
"Q. c #E1854D",
"!. c #E1854E",
"~. c #E2854E",
"^. c #E2864E",
"/. c #E3864E",
"(. c #E3864F",
"). c #E4874E",
"_. c #E5874E",
"`. c #E4874F",
"'. c #E5874F",
"]. c #EA864A",
"[. c #E5884F",
"{. c #E6884F",
"}. c #E7884F",
"|. c #E7894F",
" X c #E8894F",
".X c #ED894D",
"XX c #E08753",
"oX c #E78850",
"OX c #E78950",
"+X c #E18954",
"@X c #E18955",
"#X c #E68B57",
"$X c #E98950",
"%X c #E98A50",
"&X c #EA8B51",
"*X c #EB8B51",
"=X c #EC8C51",
"-X c #ED8C52",
";X c #ED8D52",
":X c #EC8C53",
">X c #EE8C52",
",X c #EE8D52",
"<X c #EF8D52",
"1X c #EE8D53",
"2X c #E88B55",
"3X c #E08958",
"4X c #E08A5A",
"5X c #E18A5A",
"6X c #E18B5B",
"7X c #E28A5A",
"8X c #E28B5B",
"9X c #E48C5B",
"0X c #E48C5C",
"qX c #E58C5C",
"wX c #E58D5C",
"eX c #E68D5C",
"rX c #E78E5C",
"tX c #E98E5A",
"yX c #E98F5D",
"uX c #F08E53",
"iX c #F18E53",
"pX c #F18F53",
"aX c #F28F52",
"sX c #F28F53",
"dX c #F38F53",
"fX c #EA905E",
"gX c #EC915E",
"hX c #ED915F",
"jX c #EE925F",
"kX c #F39054",
"lX c #F49054",
"zX c #F59154",
"xX c #F69154",
"cX c #F69155",
"vX c #C68163",
"bX c #CC8260",
"nX c #C0806A",
"mX c #EF9360",
"MX c #F39561",
"NX c #F49662",
"BX c #797382",
"VX c #797383",
"CX c #817481",
"ZX c #847581",
"AX c #857784",
"SX c #8A7B88",
"DX c None",
/* pixels */
"DXDXDXDXDXDXDXDXDXDXDXDXDXDXDXDXDXDXDXDXDXDXDXDXDXDXDX^ ( DXDXDXDXDXDXDXDXDXDXDXDX( ^ DXDXDXDXDXDXDXDXDXDXDXDXDXDXDXDXDXDXDXDXDXDXDXDXDXDXDX",
"DXDXDXDXDXDXDXDXDXDXDXDXDXDXDXDXDXDXDXDXDXDXDXDXDXDXDXU +.DXDXDXDXDXDXDXDXDXDXDXDX+.U DXDXDXDXDXDXDXDXDXDXDXDXDXDXDXDXDXDXDXDXDXDXDXDXDXDXDX",
"DXDXDXDXDXDXDXDXDXDXDXDXDXDXDXDXDXDXDXDXDXDXDXDXDXDXDX^ P DXDXDXDXDXDXDXDXDXDXDXDXP ^ DXDXDXDXDXDXDXDXDXDXDXDXDXDXDXDXDXDXDXDXDXDXDXDXDXDXDX",
"DXDXDXDXDXDXDXDXDXDXDXDXDXDXDXDXDXDXDXDXDXDXDXDXDXDXDX( P DXDXDXDXDXDXDXDXDXDXDXDXP ( DXDXDXDXDXDXDXDXDXDXDXDXDXDXDXDXDXDXDXDXDXDXDXDXDXDXDX",
"DXDXDXDXDXDXDXDXDXDXDXDXDXDXDXDXDXDXDXDXDXDXDXDXDXDXDXP ] DXDXDXDXDXDXDXDXDXDXDXDX] P DXDXDXDXDXDXDXDXDXDXDXDXDXDXDXDXDXDXDXDXDXDXDXDXDXDXDX",
"DXDXDXDXDXDXDXDXDXDXDXDXDXDXDXDXDXDXDXDXDXDXDXDXDXDXDXK P DXDXDXDXDXDXDXDXDXDXDXDXP K DXDXDXDXDXDXDXDXDXDXDXDXDXDXDXDXDXDXDXDXDXDXDXDXDXDXDX",
"DXDXDXDXDXDXDXDXDXDXDXDXDXDXDXDXDXDXDXDXDXDXDXDXDXDX^ &XP DXDXDXDXDXDXDXDXDXDXDXDXP *X^ DXDXDXDXDXDXDXDXDXDXDXDXDXDXDXDXDXDXDXDXDXDXDXDXDXDX",
"DXDXDXDXDXDXDXDXDXDXDXDXDXDXDXDXDXDXDXDXDXDXDXDXDXDXO.~.DXDXDXDXDXDXDXDXDXDXDXDXDXDX~.O.DXDXDXDXDXDXDXDXDXDXDXDXDXDXDXDXDXDXDXDXDXDXDXDXDXDX",
"DXDXDXDXDXDXDXDXDXDXDXDXDXDXDXDXDXDXDXDXDXDXDXDXDXP uX{ DXDXDXDXDXDXDXDXDXDXDXDXDXDXQ uX! DXDXDXDXDXDXDXDXDXDXDXDXDXDXDXDXDXDXDXDXDXDXDXDXDX",
"DXDXDXDXDXDXDXDXDXDXDXDXDXDXDXDXDXDXDXDXDXDXDXDX~ ,XP DXDXDXDXDXDXDXDXDXDXDXDXDXDXDXDXP ,X~ DXDXDXDXDXDXDXDXDXDXDXDXDXDXDXDXDXDXDXDXDXDXDXDX",
"DXDXDXDXDXDXDXDXDXDXDXDXDXDXDXDXDXDXDXDXDXDXDXDXK /.DXDXDXDXDXDXDXDXDXDXDXDXDXDXDXDXDXDX/.U DXDXDXDXDXDXDXDXDXDXDXDXDXDXDXDXDXDXDXDXDXDXDXDX",
"DXDXDXDXDXDXDXDXDXDXDXDXDXDXDXDXDXDXDXDXDXDXDXDXL =X^ ^ DXDXDXDXdX( C.Z.Z.MXM.DXDXDXU K =XL DXDXDXDXDXDXDXDXDXDXDXDXDXDXDXDXDXDXDXDXDXDXDXDX",
"DXDXDXDXDXDXDXDXDXDXDXDXDXDXDXDXDXDXDXDXDXDXDXDXDXP ^.lX-.J DX^ | XXfXyXrXH.N.DX^ 3.lX/.P DXDXDXDXDXDXDXDXDXDXDXDXDXDXDXDXDXDXDXDXDXDXDXDXDX",
"DXDXDXDXDXDXDXDXDXDXDXDXDXDXDXDXDXDXDXDXDXDXDXDXDXDXDX! P lXOXP D s.Z.z.Z.G.J.2XdXJ ~ DXDXDXDXDXDXDXDXDXDXDXDXDXDXDXDXDXDXDXDXDXDXDXDXDXDXDX",
"DXDXDXDXDXDXDXDXDXDXDXDXDXDXDXDXDXDXDXDXDXDXDXDXDXDXDXDXDXDX( [ ( g.Z.Z.Z.z.P.a.A DXDXDXDXDXDXDXDXDXDXDXDXDXDXDXDXDXDXDXDXDXDXDXDXDXDXDXDXDX",
"DXDXDXDXDXDXDXDXDXDXDXDXDXDXDXDXDXDXcXDXDXDXDXDXDXDXDXDXDXDX( _.) Z.Z.Z.Z.Z.rXD.DXDXDXDXDXDXDXDXDXDXDXcXDXDXDXDXDXDXDXDXDXDXDXDXDXDXDXDXDXDX",
"DXDXDXDXDXDXDXDXDXDXDXDXDXDXDXDXDXDX`.^ DXDXDXDXDXDXDXDXDXDX( ~.*.Z.Z.Z.Z.H.0XF.DXDXDXDXDXDXDXDXDXDX^ `.DXDXDXDXDXDXDXDXDXDXDXDXDXDXDXDXDXDX",
"DXDXDXDXDXDXDXDXDXDXDXDXDXDXDXDXDXDX^ sXL DXDXDXDXDXDXDXDXDXW R.` Z.Z.Z.Z.Z.tXc.DXDXDXDXDXDXDXDXDX{ sXE DXDXDXDXDXDXDXDXDXDXDXDXDXDXDXDXDXDX",
"DXDXDXDXDXDXDXDXDXDXDXDXDXDXDXDXDXDXDX3.] DXDXDXDXDXDXDXDX& j x ..Z.Z.Z.N.n.vXl @ DXDXDXDXDXDXDXDX] 3.DXDXDXDXDXDXDXDXDXDXDXDXDXDXDXDXDXDXDX",
"DXDXDXDXDXDXDXDXDXDXDXDXDXDXDXDXDXDXDX] dXQ DXDXDXDXDXDXDXSXO . d j.B.N.b.bXX o SX% DXDXDXDXDXDXP dXP DXDXDXDXDXDXDXDXDXDXDXDXDXDXDXDXDXDXDX",
"DXDXDXDXDXDXDXDXDXDXDXDXDXDXDXDXDXDXDXDX^ ~.DXDXDXDXDXDX@ CX* o f p.B.m.@Xz   h - @ DXDXDXDXDXDX!.^ DXDXDXDXDXDXDXDXDXDXDXDXDXDXDXDXDXDXDXDX",
"DXDXDXDXDXDXDXDXDXDXDXDXDXDXDXDXDXDXDXDXP pXI DXDXDXDXDXDX= ZXVXc @.V.M.+XnXBXk AXDXDXDXDXDXDXG iXP DXDXDXDXDXDXDXDXDXDXDXDXDXDXDXDXDXDXDXDX",
"DXDXDXDXDXDXDXDXDXDXDXDXDXDXDXDXDXDXDXDXDXP $XDXDXDXDXDXDXDX$ # Y #.i.L.6XB.g + DXDXDXDXDXDXDX$XR DXDXDXDXDXDXDXDXDXDXDXDXDXDXDXDXDXDXDXDXDX",
"DXDXDXDXDXDXDXDXDXDXDXDXDXDXDXDXDXDXDXDXDXDX>XP DXDXDXDXDXDXDXDXDXv e b V DXDXDXDXDXDXDXDXDXP ,XDXDXDXDXDXDXDXDXDXDXDXDXDXDXDXDXDXDXDXDXDXDX",
"DXDXDXDXDXDXDXDXDXDXDXDXDXDXDXDXDXDXDXDXDXDXR >XDXDXDXDXDXDXDXDXDXp < : t DXDXDXDXDXDXDXDXDX>XK DXDXDXDXDXDXDXDXDXDXDXDXDXDXDXDXDXDXDXDXDXDX",
"DXDXDXDXDXDXDXDXDXDXDXDXDXDXDXDXDXDXDXDXDXDXDX%XH DXDXDXDXDXDXDX5 a 6 9 s 0 DXDXDXDXDXDXDX^ %XDXDXDXDXDXDXDXDXDXDXDXDXDXDXDXDXDXDXDXDXDXDXDX",
"DXDXDXDXDXDXDXDXDXDXDXDXDXDXDXDXDXDXDXDXDXDXDXK iX^ DXDXDXDXDXDXDXi 1 , r DXDXDXDXDXDXDX^ iX^ DXDXDXDXDXDXDXDXDXDXDXDXDXDXDXDXDXDXDXDXDXDXDX",
"DXDXDXDXDXDXDXDXDXDXDXDXDXDXDXDXDXDXDXDXDXDXDXDX~.K DXDXDXDXDXDXDXC Z ' >.DXDXDXDXDXDXDXK ~.DXDXDXDXDXDXDXDXDXDXDXDXDXDXDXDXDXDXDXDXDXDXDXDX",
"DXDXDXDXDXDXDXDXDXDXDXDXDXDXDXDXDXDXDXDXDXDXDXDX( sX! DXDXDXDXI Q.%.k.K.T.yXl.DXDXDXDXP sXL DXDXDXDXDXDXDXDXDXDXDXDXDXDXDXDXDXDXDXDXDXDXDXDX",
"DXDXDXDXDXDXDXDXDXDXDXDXDXDXDXDXDXDXDXDXDXDXDXDXDX3.] G DXDXDX>XL s.S.z.g.Z.NXK.DXDXR ] 3.DXDXDXDXDXDXDXDXDXDXDXDXDXDXDXDXDXDXDXDXDXDXDXDXDX",
"DXDXDXDXDXDXDXDXDXDXDXDXDXDXDXDXDXDXDXDXDXDXDXDXDX] {.sX|.K ] [ 1.J.Z.Z.Z.Z.H.N.P {.sX}.] DXDXDXDXDXDXDXDXDXDXDXDXDXDXDXDXDXDXDXDXDXDXDXDXDX",
"DXDXDXDXDXDXDXDXDXDXDXDXDXDXDXDXDXDXDXDXDXDXDXDXDXDXDX~ D *Xo.F r.S.Z.Z.Z.Z.Z.I.:XD ^ DXDXDXDXDXDXDXDXDXDXDXDXDXDXDXDXDXDXDXDXDXDXDXDXDXDXDX",
"DXDXDXDXDXDXDXDXDXDXDXDXDXDXDXDXDXDXDXDXDXDXDXDXDXDXDXDXDXDXR T e.S.Z.Z.Z.z.I.Z.DXDXDXDXDXDXDXDXDXDXDXDXDXDXDXDXDXDXDXDXDXDXDXDXDXDXDXDXDXDX",
"DXDXDXDXDXDXDXDXDXDXDXDXDXDXDXDXDXDXDXDXDXDXDXDXDXDXDXDXDXDX(  X( z.Z.Z.Z.N.jXz.DXDXDXDXDXDXDXDXDXDXDXDXDXDXDXDXDXDXDXDXDXDXDXDXDXDXDXDXDXDX",
"DXDXDXDXDXDXDXDXDXDXDXDXDXDXDXDXDXDXDXDXDXDXDXDXDXDXDXDXDXDXDX^ X.w.S.Z.Z.7XZ.DXDXDXDXDXDXDXDXDXDXDXDXDXDXDXDXDXDXDXDXDXDXDXDXDXDXDXDXDXDXDX",
"DXDXDXDXDXDXDXDXDXDXDXDXDXDXDXDXDXDXDXDXDXDXDXDXDXDX{ DXDXDXDXI W.*.Z.Z.Z.eXZ.DXDXDXDX{ DXDXDXDXDXDXDXDXDXDXDXDXDXDXDXDXDXDXDXDXDXDXDXDXDXDX",
"DXDXDXDXDXDXDXDXDXDXDXDXDXDXDXDXDXDXDXDXDXDXDXDXDXR pX6.^ DXDX^ 9.,.S.Z.A.wXN.DXDX^ 5.pX] DXDXDXDXDXDXDXDXDXDXDXDXDXDXDXDXDXDXDXDXDXDXDXDXDX",
"DXDXDXDXDXDXDXDXDXDXDXDXDXDXDXDXDXDXDXDXDXDXDXDX] -XH ] xX3.R ( 5.;.Z.Z.Z.9Xh.^ 3.xXP ^ -XP DXDXDXDXDXDXDXDXDXDXDXDXDXDXDXDXDXDXDXDXDXDXDXDX",
"DXDXDXDXDXDXDXDXDXDXDXDXDXDXDXDXDXDXDXDXDXDXDXF -XU DXDX~ P sX} ^ P a.S.Z.U.t.aX{ G DXDXH -X^ DXDXDXDXDXDXDXDXDXDXDXDXDXDXDXDXDXDXDXDXDXDXDX",
"DXDXDXDXDXDXDXDXDXDXDXDXDXDXDXDXDXDXDXDXDXDXR -XH DXDXDXDXDXL O.(.F ) g.G.#Xo.( DXDXDXDXDX] -X] DXDXDXDXDXDXDXDXDXDXDXDXDXDXDXDXDXDXDXDXDXDX",
"DXDXDXDXDXDXDXDXDXDXDXDXDXDXDXDXDXDXDXDXDXK -XH DXDXDXDXDXDXDXDXP =.S r.P.^ DXDXDXDXDXDXDXDXH -X^ DXDXDXDXDXDXDXDXDXDXDXDXDXDXDXDXDXDXDXDXDX",
"DXDXDXDXDXDXDXDXDXDXDXDXDXDXDXDXDXDXDXDXF -XH DXDXDXDXDXDXDXDXDXDXD  .2.d.DXDXDXDXDXDXDXDXDXDX] -X^ DXDXDXDXDXDXDXDXDXDXDXDXDXDXDXDXDXDXDXDX",
"DXDXDXDXDXDXDXDXDXDXDXDXDXDXDXDXDXDXDXR -XU DXDXDXDXDXDXDXDXDXDXDX6 9 9 w 8 DXDXDXDXDXDXDXDXDXDX] -X] DXDXDXDXDXDXDXDXDXDXDXDXDXDXDXDXDXDXDX",
"DXDXDXDXDXDXDXDXDXDXDXDXDXDXDXDXDXDXR -XU DXDXDXDXDXDXDXDXDXDXN u 7 2 2 4 y n DXDXDXDXDXDXDXDXDXDXH -X] DXDXDXDXDXDXDXDXDXDXDXDXDXDXDXDXDXDX",
"DXDXDXDXDXDXDXDXDXDXDXDXDXDXDXDXDXR -XU DXDXDXDXDXDXDXDXDXD ;X.X2 7 5 5 6 > ].1XD DXDXDXDXDXDXDXDXDX] -X] DXDXDXDXDXDXDXDXDXDXDXDXDXDXDXDXDX",
"DXDXDXDXDXDXDXDXDXDXDXDXDXDXDXDXR -XH DXDXDXDXDXDXDXP ^ sX*X^ DX: q , > 3 ; DX{ *XsXP } DXDXDXDXDXDXDX^ -X] DXDXDXDXDXDXDXDXDXDXDXDXDXDXDXDX",
"DXDXDXDXDXDXDXDXDXDXDXDXDXDXDXR -XH DXDXDXDXDXDXR } lXQ.] DXDXDXm B n M E q.DXDXDXK Q.lX} H DXDXDXDXDXDX^ -X] DXDXDXDXDXDXDXDXDXDXDXDXDXDXDX",
"DXDXDXDXDXDXDXDXDXDXDXDXDXDXL -XH DXDXDXDXDXDX).=XP R DXDXDXDXP 7.{ %.s.Y.8XN.DXDXDXDX~ ] =X).DXDXDXDXDXDX] -XR DXDXDXDXDXDXDXDXDXDXDXDXDXDX",
"DXDXDXDXDXDXDXDXDXDXDXDXDXF sX^ DXDXDXDXDXDXG -X] DXDXDXDXDX%X} K ( f.S.Z.C.I.jXg.DXDXDXDXR -XH DXDXDXDXDXDX^ sX! DXDXDXDXDXDXDXDXDXDXDXDXDX",
"DXDXDXDXDXDXDXDXDXDXDXDXDX~ H DXDXDXDXDXDXDXP 5.DXDXDXDXDX{.K P P a.S.Z.Z.Z.Z.Z.hXDXDXDXDXDX5.K DXDXDXDXDXDXDX] ~ DXDXDXDXDXDXDXDXDXDXDXDXDX",
"DXDXDXDXDXDXDXDXDXDXDXDXDXDXDXDXDXDXDXDXDXDXuX^ DXDXDXDX] 4.^ F w.J.Z.Z.Z.Z.Z.A.4XG.DXDXDXDX^ uXDXDXDXDXDXDXDXDXDXDXDXDXDXDXDXDXDXDXDXDXDXDX",
"DXDXDXDXDXDXDXDXDXDXDXDXDXDXDXDXDXDXDXDXDXH iXDXDXDXDXDX'.F P P f.Z.Z.Z.Z.Z.Z.Z.N.gXDXDXDXDXDXiXH DXDXDXDXDXDXDXDXDXDXDXDXDXDXDXDXDXDXDXDXDX",
"DXDXDXDXDXDXDXDXDXDXDXDXDXDXDXDXDXDXDXDXDXO.U DXDXDXDX( `.L H $.Z.Z.Z.Z.Z.Z.Z.Z.Z.yXx.DXDXDXDXU O.DXDXDXDXDXDXDXDXDXDXDXDXDXDXDXDXDXDXDXDXDX",
"DXDXDXDXDXDXDXDXDXDXDXDXDXDXDXDXDXDXDXDXH lXP DXDXDXDX^ E.] D :.S.Z.Z.Z.Z.Z.Z.Z.Z.eXZ.DXDXDXDXP lXH DXDXDXDXDXDXDXDXDXDXDXDXDXDXDXDXDXDXDXDX",
"DXDXDXDXDXDXDXDXDXDXDXDXDXDXDXDXDXDXDXDX^ %XDXDXDXDXDXP 8.P D <.S.Z.Z.Z.Z.Z.Z.Z.H.qXv.DXDXDXDXDX%X^ DXDXDXDXDXDXDXDXDXDXDXDXDXDXDXDXDXDXDXDX",
"DXDXDXDXDXDXDXDXDXDXDXDXDXDXDXDXDXDXDXDX}.^ DXDXDXDXDX( 0.] D <.S.Z.Z.Z.Z.Z.Z.Z.Z.eXM.DXDXDXDXDX^ }.DXDXDXDXDXDXDXDXDXDXDXDXDXDXDXDXDXDXDXDX",
"DXDXDXDXDXDXDXDXDXDXDXDXDXDXDXDXDXDXDX^ zXL DXDXDXDXDXP ~.K F ;.Z.Z.Z.Z.Z.Z.Z.Z.Z.yXA.DXDXDXDXDXL zX^ DXDXDXDXDXDXDXDXDXDXDXDXDXDXDXDXDXDXDX",
"DXDXDXDXDXDXDXDXDXDXDXDXDXDXDXDXDXDXDX^ 0.DXDXDXDXDXDX~ [.L H ) Z.Z.Z.Z.Z.Z.Z.Z.Z.gXN.DXDXDXDXDXDX8.^ DXDXDXDXDXDXDXDXDXDXDXDXDXDXDXDXDXDXDX",
"DXDXDXDXDXDXDXDXDXDXDXDXDXDXDXDXDXDXDX<XF DXDXDXDXDXDXDX'.^ P P f.Z.Z.Z.Z.Z.Z.Z.Z.rXDXDXDXDXDXDXDXF <XDXDXDXDXDXDXDXDXDXDXDXDXDXDXDXDXDXDXDX",
"DXDXDXDXDXDXDXDXDXDXDXDXDXDXDXDXDXDX^ sXDXDXDXDXDXDXDXDXJ } ^ D y.S.Z.Z.Z.Z.Z.Z.5XN.DXDXDXDXDXDXDXDXsX^ DXDXDXDXDXDXDXDXDXDXDXDXDXDXDXDXDXDX",
"DXDXDXDXDXDXDXDXDXDXDXDXDXDXDXDXDXDX} P DXDXDXDXDXDXDXDXR {.J P ) Z.Z.Z.Z.Z.Z.Z.hXDXDXDXDXDXDXDXDXDXP } DXDXDXDXDXDXDXDXDXDXDXDXDXDXDXDXDXDX",
"DXDXDXDXDXDXDXDXDXDXDXDXDXDXDXDXDXDXlXU DXDXDXDXDXDXDXDXDXP [ E D u.J.Z.Z.Z.Z.7XA.DXDXDXDXDXDXDXDXDXH lXDXDXDXDXDXDXDXDXDXDXDXDXDXDXDXDXDXDX",
"DXDXDXDXDXDXDXDXDXDXDXDXDXDXDXDXDXP *XDXDXDXDXDXDXDXDXDXDXDX$XD ^ P f.S.Z.Z.Z.yXDXDXDXDXDXDXDXDXDXDXDX*XP DXDXDXDXDXDXDXDXDXDXDXDXDXDXDXDXDX",
"DXDXDXDXDXDXDXDXDXDXDXDXDXDXDXDXDX'.] DXDXDXDXDXDXDXDXDXDXDXU *X^ K $.z.K.Z.mXDXDXDXDXDXDXDXDXDXDXDXDX] '.DXDXDXDXDXDXDXDXDXDXDXDXDXDXDXDXDX",
"DXDXDXDXDXDXDXDXDXDXDXDXDXDXDXDXH zX^ DXDXDXDXDXDXDXDXDXDXDXDXI }.O.H &.3XfXDXDXDXDXDXDXDXDXDXDXDXDXDX^ zXH DXDXDXDXDXDXDXDXDXDXDXDXDXDXDXDX",
"DXDXDXDXDXDXDXDXDXDXDXDXDXDXDXDXP Q.DXDXDXDXDXDXDXDXDXDXDXDXDXDXDX^ oX}._ DXDXDXDXDXDXDXDXDXDXDXDXDXDXDXQ.P DXDXDXDXDXDXDXDXDXDXDXDXDXDXDXDX",
"DXDXDXDXDXDXDXDXDXDXDXDXDXDXDXDX*X] DXDXDXDXDXDXDXDXDXDXDXDXDXDXDXDX{ L DXDXDXDXDXDXDXDXDXDXDXDXDXDXDXDX] *XDXDXDXDXDXDXDXDXDXDXDXDXDXDXDXDX",
"DXDXDXDXDXDXDXDXDXDXDXDXDXDX^ U sXDXDXDXDXDXDXDXDXDXDXDXDXDXDXDXDXDXDXDXDXDXDXDXDXDXDXDXDXDXDXDXDXDXDXDXDXsXJ / DXDXDXDXDXDXDXDXDXDXDXDXDXDX",
"DXDXDXDXDXDXDXDXDXDXDXDXDX^ kX/.^ DXDXDXDXDXDXDXDXDXDXDXDXDXDXDXDXDXDXDXDXDXDXDXDXDXDXDXDXDXDXDXDXDXDXDXDX^ /.kX^ DXDXDXDXDXDXDXDXDXDXDXDXDX",
"DXDXDXDXDXDXDXDXDXDXDXDXDXR P DXDXDXDXDXDXDXDXDXDXDXDXDXDXDXDXDXDXDXDXDXDXDXDXDXDXDXDXDXDXDXDXDXDXDXDXDXDXDXDXP L DXDXDXDXDXDXDXDXDXDXDXDXDX"
};
