/* XPM */
static char *result[] = {
/* columns rows colors chars-per-pixel */
"32 32 5 1 ",
"  c #231605",
". c #362107",
"X c #462B0A",
"o c #6E4411",
"O c #925E1E",
/* pixels */
"ooO.                     ..ooOOo",
"ooO.    ...                .ooOO",
"oo.    ..OO.   ....        .Xooo",
"o.     .XXOO. .ooOO.     . .XXoo",
"o.      .X.. .ooooOo.   .....XXo",
".  .     ..  .oooooOo.  .O.  ...",
"  ......     .Xoooooo. .oXO.    ",
"  .ooOO..    .XXXooo.  ..XOO.   ",
"  .XXoOO.     ......    ...o.   ",
"   .Xooo.            ...   ..   ",
"   .XXo..  .....    ..OO.       ",
"    ....  .ooOO.    .ooOO.      ",
"          ..ooO.    .Xooo.    ..",
"..         ..oo.    .XXoo.    .O",
"O..  ....   ...      .....   ..O",
"OO. ..oOO.           .      ..oo",
"oO. .oooO.  ...             .ooo",
"oo.  .oo.  .oO..  ....    ...ooo",
"oo.  ....  .oOO.. .oO.    ..Xooo",
"o.         .XXOO. .Xo.    .XXXo.",
"o.   .....  .Xoo.  ..      ..X..",
".    .ooOO.  ....    ..     ... ",
"    .oXooO.         ..O...      ",
"     .XXoo.         .oOOO..  ...",
"  .....XXX.         .oooo.. .o. ",
"  XX. ..XX.    .    .ooo.   .o. ",
"  ...  ....  ..O.   .XX.    ..  ",
"   ..  .    ..oO.   .X.         ",
" ...  .o..  .XXo.    ..      .. ",
".OO.  .XX.  .....    ..     .OO.",
"ooOO.  ...            .  ...ooOO",
"ooooo.                  ..oooooo"
};
