/* XPM */
static char *result[] = {
/* columns rows colors chars-per-pixel */
"32 32 6 1 ",
"  c #231605",
". c #362107",
"X c #323232",
"o c #462B0A",
"O c #6E4411",
"+ c #925E1E",
/* pixels */
"OO+.                     ..OO+XX",
"OO+.    ...                .OO+X",
"OO.    ..++.   ....        .oOOX",
"O.     .oo++. .OO++.     . .ooOX",
"O.      .o.. .OOOO+O.   .....ooX",
".  .     ..  .OOOOO+O.  .+.  .XX",
"  ......     .oOOOOOO. .Oo+.  XX",
"  .OO++..    .oooOOO.  ..o++. XX",
"  .ooO++.     ......    ...O.  X",
"   .oOOO.            ...   ..  X",
"   .ooO..  .....    ..++.      X",
"    ....  .OO++.    .OO++.    XX",
"          ..OO+.    .oOOO.    XX",
"..         ..OO.    .ooOO.    XX",
"+..  ....   ...      .....   XXX",
"++. ..O++.           .      .XXX",
"O+. .OOO+.  ...             .OOX",
"OO.  .OO.  .O+..  ....    ...OOX",
"OO.  ....  .O++.. .O+.    ..oOXX",
"O.         .oo++. .oO.    .oooXX",
"O.   .....  .oOO.  ..      ..o.X",
".    .OO++.  ....    ..     ..XX",
"    .OoOO+.         ..+...   XXX",
"     .ooOO.         .O+++..  .XX",
"  .....ooo.         .OOOO.. .O.X",
"  oo. ..oo.    .    .OOO.   .OXX",
"  ...  ....  ..+.   .oo.    ..XX",
"   ..  .    ..O+.   .o.       XX",
" ...  .O..  .ooO.    ..      .XX",
".++.  .oo.  .....    ..     .++X",
"OO++.  ...            .  ...OOXX",
"OOOOO.                  ..OOOXXX"
};
