/* XPM */
static char *result[] = {
/* columns rows colors chars-per-pixel */
"64 64 149 2 ",
"   c #000000",
".  c #0C0303",
"X  c #0E0903",
"o  c #00000D",
"O  c #0F0C08",
"+  c #130202",
"@  c #1F0A0A",
"#  c #171105",
"$  c #1A1305",
"%  c #14110E",
"&  c #18140F",
"*  c #000015",
"=  c #070E14",
"-  c #0C1114",
";  c #0F1419",
":  c #151516",
">  c #1A1A1A",
",  c #230B0B",
"<  c #2A0F0E",
"1  c #2D100F",
"2  c #241A08",
"3  c #331413",
"4  c #391716",
"5  c #24211F",
"6  c #1F2123",
"7  c #27292A",
"8  c #2B2C2D",
"9  c #232628",
"0  c #252D33",
"q  c #2A2F33",
"w  c #273138",
"e  c #2C343A",
"r  c #3B3B3C",
"t  c #491F1E",
"y  c #471E1D",
"u  c #4B201F",
"i  c #423415",
"p  c #4E2120",
"a  c #532423",
"s  c #5E2929",
"d  c #582625",
"f  c #4B3434",
"g  c #573635",
"h  c #632C2B",
"j  c #6A2F2E",
"k  c #6A302F",
"l  c #6D3131",
"z  c #733433",
"x  c #783736",
"c  c #7B3837",
"v  c #773E3D",
"b  c #7C3C3B",
"n  c #57451F",
"m  c #634D24",
"M  c #685227",
"N  c #38464F",
"B  c #3C4A54",
"V  c #464646",
"C  c #424F58",
"Z  c #44505A",
"A  c #5B5B5B",
"S  c #4B5C68",
"D  c #5F6060",
"F  c #5A6E7C",
"G  c #546775",
"H  c #5C707E",
"J  c #6B6B6B",
"K  c #696565",
"L  c #777474",
"P  c #797676",
"I  c #797979",
"U  c #833C3B",
"Y  c #883F3D",
"T  c #8B403F",
"R  c #9C7D3D",
"E  c #8E4544",
"W  c #8E4847",
"Q  c #934443",
"!  c #984746",
"~  c #9A4847",
"^  c #944948",
"/  c #9E4A49",
"(  c #934847",
")  c #A44D4C",
"_  c #AF5351",
"`  c #B25453",
"'  c #BB5857",
"]  c #BD5958",
"[  c #C15C5A",
"{  c #CC615F",
"}  c #CE6261",
"|  c #D56664",
" . c #DA6866",
".. c #DE6A69",
"X. c #E16C6A",
"o. c #E9706E",
"O. c #EC7270",
"+. c #F57674",
"@. c #F87775",
"#. c #FB7977",
"$. c #FF7C7A",
"%. c #A1813F",
"&. c #BB964B",
"*. c #82807F",
"=. c #C79F50",
"-. c #CAA252",
";. c #DFB35B",
":. c #E0B35B",
">. c #E8BA5F",
",. c #FF807E",
"<. c #EABC61",
"1. c #EBBF6A",
"2. c #F5C564",
"3. c #FDCB65",
"4. c #FFCD69",
"5. c #FFD36C",
"6. c #FFD57E",
"7. c #627887",
"8. c #637989",
"9. c #6F8899",
"0. c #6B8394",
"q. c #70889A",
"w. c #7791A4",
"e. c #7D99AC",
"r. c #838484",
"t. c #8E8B8B",
"y. c #949292",
"u. c #9A9A9A",
"i. c #819DB1",
"p. c #85A2B7",
"a. c #89A7BC",
"s. c #8BA9BE",
"d. c #87A4B8",
"f. c #A4A4A4",
"g. c #AAABAB",
"h. c #BBBBBB",
"j. c #FF8280",
"k. c #8DABC1",
"l. c #90AFC5",
"z. c #C3C4C4",
"x. c #CECECE",
"c. c #D2D2D2",
"v. c #DFDFDF",
"b. c #E1E1E1",
"n. c #ECECEB",
"m. c #EBE9E7",
"M. c #F3F3F3",
"N. c #FFFFFF",
"B. c None",
/* pixels */
"B.B.B.B.B.B.B.B.B.B.B.B.B.B.B.B.B.B.B.B.B.B.B.B.B.B.B.B.B.B.B.B.B.B.B.B.B.B.B.B.B.B.B.B.B.B.B.B.B.B.B.B.B.B.B.B.B.B.B.B.B.X     ",
"B.B.B.B.B.B.B.B.B.B.B.B.B.B.B.B.B.B.B.B.B.B.B.B.B.B.B.B.B.B.B.B.B.B.B.B.B.B.B.B.B.B.B.B.B.B.B.B.B.B.B.B.B.B.B.B.B.$ 2 2     .   ",
"B.B.B.B.B.B.B.B.B.B.B.B.B.B.B.B.B.B.B.B.B.B.B.B.B.B.B.B.B.B.B.B.B.B.B.B.B.B.B.B.B.B.B.B.B.B.B.B.B.B.B.B.B.$ 2 2 .       # i     ",
"B.B.B.B.B.B.B.B.B.B.B.B.B.B.B.B.B.B.B.B.B.B.B.B.B.B.B.B.B.B.B.B.B.B.B.B.B.B.B.B.B.B.B.B.B.B.B.B.B.# 2 2 O         M &.&.2.&.  2 ",
"B.B.B.B.B.B.B.B.B.B.B.B.    : > > > > > > > > > > > > > > > > > > > > > > > > > > > > > > > >   .         m R -.<.4.5.5.5.&.  2 ",
"B.B.B.B.B.B.B.B.B.B.B.B.  .                                                                   O   n R =.<.3.5.5.5.4.3.3.5.&.  2 ",
"B.B.B.B.B.B.B.B.B.B.B.B.:   z.m.v.v.v.v.v.v.v.v.v.v.v.v.v.v.v.v.v.v.v.b.v.v.v.v.v.v.v.b.v.b.z.    ;.5.5.5.4.3.3.3.4.4.3.5.&.  2 ",
"B.B.B.B.B.B.B.B.B.B.B.B.>   b.N.N.N.N.N.N.N.N.N.N.N.N.N.N.N.N.N.N.N.N.N.N.N.N.N.N.N.N.N.N.N.b.  * :.5.3.3.4.4.4.4.4.5.4.5.&.  2 ",
"B.B.B.B.B.B.B.B.B.B.B.B.>   v.N.N.N.N.N.N.N.N.N.N.N.N.N.N.N.N.N.N.N.N.N.N.N.N.N.N.N.N.N.N.N.v.  * ;.5.3.4.5.4.4.4.4.4.4.5.&.  2 ",
"B.  + , , , , , , , , , , + K I L L L L L L L L L L L L L L L L L L L L L L L L L L J c.N.N.v.  o :.5.4.4.4.4.4.4.4.4.4.5.&.  2 ",
"  +                                                                                   r.N.N.b.  o :.5.4.4.4.4.4.4.4.4.3.5.&.  2 ",
"X   k ! Q Q Q ( ( ( Q Q Q Q ( ^ ^ ^ ^ ^ ( ^ ^ ^ ^ ^ ^ ^ ^ ^ ^ ^ ^ ^ ^ ^ ^ ^ ^ ^ ^ g   t.N.N.v.  o :.5.4.4.4.4.4.4.4.4.4.5.&.  2 ",
",   [ j.$.$.$.,.$.$.$.$.$.$.$.$.$.$.$.$.$.$.$.$.$.$.$.$.$.$.,.$.$.$.$.$.,.$.$.$.j.^   t.N.N.v.  o :.5.3.4.4.4.4.4.4.4.4.5.&.  2 ",
",   ' $.#.$.$.$.$.$.$.$.$.$.$.$.$.$.$.$.$.$.$.$.$.$.$.$.$.#.$.$.$.$.$.$.$.$.$.$.$.W   t.N.N.b.  o :.5.3.4.4.4.4.4.4.4.4.5.&.  2 ",
",   ' ,.$.[ U E E E T X.$.$.} z X.$.$.$.$.Q ) #.$.#.Q ) $.$.#./ x c x c c c  .$.$.W   t.N.N.b.  * :.5.3.5.4.4.4.4.4.4.4.5.&.  2 ",
",   ' j.+.<           ( $.$.l   t +.$.$.)     X.j.|     ..,. .              U $.,.W   t.N.N.b.  o :.5.4.4.4.4.4.4.4.4.4.5.&.  2 ",
",   ' ,.+.a   j Q T T X.$.,.{     E j.|     Y $.,.|     X.$.#._ E j   3 E Q X.$.$.W   t.N.N.b.  o :.5.3.4.4.4.4.4.4.4.4.5.&.  2 ",
",   ' ,.+.a   ] ,.$.$.$.$.$.$.~     ` h   3 O.$.$. .    X.,.$.$.,.`   d #.$.$.#.$.W   t.N.N.v.  o :.5.3.4.4.4.4.4.4.4.3.5.&.  2 ",
",   ] j.+.a   ] ,.$.$.$.#.$.$.#.u         } $.$.,.|     X.,.#.#.$.`   a +.$.#.$.$.W   t.N.N.v.  o :.5.3.5.4.4.4.4.4.4.4.5.&.  2 ",
",   ' $.+.t   s U x Q +.$.$.#.$...  1   ) $.#.$.$. .    X.$.#.$.$.`   a @.$.$.#.$.W   t.N.N.b.  o :.5.4.4.4.4.4.4.4.5.3.5.&.  2 ",
",   ' ,.+.t           | $.#.$.$.o., <   ' $.$.$.$.|     X.$.$.#.,._   d @.$.$.#.$.W   t.N.N.b.  * :.5.3.4.4.4.4.4.4.4.4.5.&.  2 ",
",   ' ,.+.u   j Q T ) #.$.#.$.$.z         ..$.#.,. .    X.$.#.#.$.`   a @.$.$.#.$.W   t.N.N.b.  o :.5.4.4.4.4.4.4.4.4.4.5.&.  2 ",
",   ' ,.+.a   [ ,.$.$.$.$.$.,.`     ( t   s #.$.$.|     X.,.#.$.,._   a @.$.$.#.$.W   t.N.N.b.  o :.5.3.4.4.4.4.4.4.4.4.5.&.  2 ",
",   ' $.+.a   ' ,.#.$.$.$.$...    l $.[     ) $.,.|     X.$.$.#.$.`   d @.$.#.$.$.W   t.N.N.v.  o :.5.3.4.4.4.4.4.4.4.4.5.&.  2 ",
",   ] $.+.p   d x z z  .$.+.s     o.$.$.Y     | ,.|     X.$.$.#.,.`   d +.$.$.#.$.W   t.N.N.b.  * ;.5.4.4.4.4.4.4.5.4.4.5.&.  2 ",
",   ' j.@.3           E j.|     [ ,.#.$.+.4   Y ,.|     X.$.#.$.,.`   y #.$.$.$.$.W   t.N.N.v.  * ;.5.4.4.4.5.4.4.4.4.4.5.&.  2 ",
",   ' ,.$.} Q ~ ~ ~ ~ o.$.#.) ` $.#.$.$.$...Y X.$.#.) ` #.$.$.#.$.+.E { $.#.#.#.$.W   t.N.N.b.    :.4.4.4.4.4.4.4.4.4.4.5.&.  2 ",
",   ' $.$.$.$.$.,.$.$.$.$.$.$.$.$.$.$.$.$.$.$.$.$.$.,.$.$.$.#.$.$.$.$.$.$.#.$.$.$.W   t.N.N.N.h.&.4.5.4.4.4.4.4.4.4.4.4.5.&.  2 ",
",   ] j.$.$.$.$.$.$.$.$.$.#.$.$.$.$.$.$.$.#.$.$.$.$.$.$.$.#.$.$.$.$.$.$.$.$.$.#.,.( o t.N.N.N.N.6.4.4.4.4.4.4.4.4.4.4.4.5.&.  2 ",
".   a x z z z z z z z z z z v v v v v v v v v v v v v v v v v v v v v v v v v v M f   t.N.N.N.N.6.3.4.4.4.4.4.4.4.4.4.4.5.&.  2 ",
"  .                                                                                   r.N.N.N.m.1.4.4.4.4.4.4.4.4.4.4.4.5.&.  2 ",
"B.  + @ @ @ @ @ @ , , @ @   r.y.y.y.y.y.y.y.y.y.y.y.y.y.y.y.y.y.y.y.y.y.y.y.y.y.y.y.y.v.N.N.n.=   <.5.4.5.4.4.4.4.4.4.4.5.&.  2 ",
"B.B.B.B.B.B.B.B.B.B.B.B.>   b.N.N.N.N.N.N.N.N.N.N.N.N.N.N.N.N.N.N.N.N.N.N.N.N.N.N.N.N.N.N.N.m.    <.5.3.4.4.4.4.4.4.4.4.5.&.  2 ",
"B.B.B.B.B.B.B.B.B.B.B.B.>   v.N.N.N.N.N.N.N.N.N.N.N.N.N.N.N.N.N.N.N.N.N.N.N.N.N.N.N.N.N.N.N.N.m.1.4.4.4.4.4.4.4.4.4.4.3.5.&.  2 ",
"B.B.B.B.B.B.B.B.B.B.B.B.>   b.N.N.N.N.N.N.N.N.N.N.N.N.N.N.N.N.N.N.N.N.N.N.N.N.N.N.N.N.N.N.N.N.N.6.3.4.4.4.4.5.4.4.4.4.3.5.&.  2 ",
"B.B.B.B.B.B.B.B.B.B.B.B.>   v.N.N.N.N.N.N.N.N.N.N.N.N.N.N.N.N.N.N.N.N.N.N.N.N.N.N.N.N.N.N.N.N.N.6.4.4.4.4.4.4.4.5.4.4.3.5.&.  2 ",
"B.B.B.B.B.B.B.B.B.B.B.B.>   b.N.N.N.N.N.N.N.N.N.N.N.N.N.N.N.N.N.N.N.N.N.N.N.N.N.N.N.N.N.N.N.N.h.&.4.4.4.4.4.4.4.4.4.4.4.5.&.  2 ",
"B.B.B.B.B.B.B.B.B.B.B.B.>   b.N.M.N.N.N.v.x.N.N.N.N.N.N.N.N.N.N.N.N.N.N.N.N.N.N.N.N.N.N.N.N.b.    :.5.4.4.4.4.4.4.4.4.4.5.&.  2 ",
"B.B.B.B.B.B.B.B.B.B.B.B.>   v.N.N.N.N.n.    I v.N.N.N.N.N.N.N.N.N.N.N.N.N.N.N.N.N.N.N.N.N.N.v.  * :.5.4.4.4.4.4.4.4.4.3.5.&.  2 ",
"B.B.B.B.B.B.B.B.B.B.B.B.>   b.N.N.N.N.m.  8     u.n.N.N.N.N.N.N.N.N.N.N.N.N.N.N.N.N.N.N.N.N.b.  o :.5.4.4.4.4.4.4.4.5.4.5.&.  2 ",
"B.B.B.B.B.B.B.B.B.B.B.o :   g.z.h.z.z.g.  ; %     9 h.N.N.N.N.N.N.N.N.N.N.N.N.N.N.N.N.N.N.N.v.  * :.5.4.4.4.4.5.4.4.4.4.5.&.  2 ",
"B.B.B.                    .             :   8.F       A x.N.N.N.N.N.N.N.N.N.N.N.N.N.N.N.N.N.b.  o :.4.4.4.4.4.4.4.4.4.4.5.&.  2 ",
"B.B.B.    o - - - - - - - = 9 7 7 7 7 9   w i.l.w.C       r.b.N.N.N.N.N.N.N.N.N.N.N.N.N.N.N.b.  o :.5.4.4.4.4.4.4.4.4.4.5.&.  2 ",
"B.B.B.-   G p.i.e.p.e.e.p.e.i.i.i.i.i.i.i.d.s.a.k.s.0.e       f.M.N.N.N.N.N.N.N.N.N.N.N.N.N.v.  o :.5.4.4.4.4.4.4.4.4.4.5.&.  2 ",
"B.B.B.;   H l.s.k.s.k.k.k.k.k.k.k.s.k.s.k.k.a.a.a.a.k.d.7.q %   V n.N.N.N.N.N.N.N.N.N.N.N.N.v.  o :.5.3.4.4.4.4.4.4.4.4.5.&.  2 ",
"B.B.B.;   H k.a.a.a.a.a.d.s.d.a.d.s.a.a.a.a.a.s.a.a.k.k.w.w 9     m.N.N.N.N.N.N.N.N.N.N.N.N.b.  o :.5.3.4.4.4.4.4.4.4.4.5.&.  2 ",
"B.B.B.;   H l.a.s.a.s.s.s.s.s.s.s.s.s.s.k.k.s.a.s.k.e.S       K v.N.N.N.N.N.N.N.N.N.N.N.N.N.v.  * :.5.3.4.4.4.4.4.4.4.4.5.&.  2 ",
"B.B.B.    0 B B B B B B B B Z Z Z Z Z Z N S d.k.p.F &     r z.N.N.N.N.N.N.N.N.N.N.N.N.N.N.N.b.  o :.5.4.4.5.4.4.4.4.4.4.5.&.  2 ",
"B.B.B.                                      q.q.0       f.M.N.N.N.N.N.N.N.N.N.N.N.N.N.N.N.N.b.  o :.5.3.4.4.4.4.4.4.4.4.5.&.  2 ",
"B.B.B.B.  = ; - - - - - :   r.y.y.y.y.r.  - 0 +     t.b.N.N.N.N.N.N.N.N.N.N.N.N.N.N.N.N.N.N.v.  o :.5.3.4.4.4.4.4.4.4.4.5.&.  2 ",
"B.B.B.B.B.B.B.B.B.B.B.B.>   b.N.N.N.N.b.  8     A c.N.N.N.N.N.N.N.N.N.N.N.N.N.N.N.N.N.N.N.N.v.  * :.5.3.4.4.4.4.4.5.4.4.5.&.  2 ",
"B.B.B.B.B.B.B.B.B.B.B.B.>   v.N.N.N.N.b.    8 h.N.N.N.N.N.N.N.N.N.N.N.N.N.N.N.N.N.N.N.N.N.N.b.  o :.5.4.4.5.4.4.4.4.4.3.5.&.  2 ",
"B.B.B.B.B.B.B.B.B.B.B.B.>   v.N.N.N.N.N.h.f.M.N.N.N.N.N.N.N.N.N.N.N.N.N.N.N.N.N.N.N.N.N.N.N.v.  o :.5.3.4.4.4.4.4.4.4.4.5.&.  2 ",
"B.B.B.B.B.B.B.B.B.B.B.B.>   v.N.N.N.N.N.N.N.N.N.N.N.N.N.N.N.N.N.N.N.N.N.N.N.N.N.N.N.N.N.N.N.v.  o :.5.4.4.4.4.4.4.4.4.4.5.&.  2 ",
"B.B.B.B.B.B.B.B.B.B.B.B.>   v.N.N.N.N.N.N.N.N.N.N.N.N.N.N.N.N.N.N.N.N.N.N.N.N.N.N.N.N.N.N.N.b.  o :.5.3.4.4.4.4.4.4.4.4.5.&.  2 ",
"B.B.B.B.B.B.B.B.B.B.B.B.>   v.N.N.N.M.N.N.N.N.N.N.N.N.N.N.N.N.N.N.N.N.N.N.N.N.N.N.N.N.N.N.N.b.  o ;.5.3.4.4.4.4.4.4.4.4.5.&.  2 ",
"B.B.B.B.B.B.B.B.B.B.B.B.>   b.N.N.N.N.N.N.N.N.N.N.N.N.N.N.N.N.N.N.N.N.N.N.N.N.N.N.N.N.N.N.N.b.  * ;.4.3.4.4.4.4.4.4.4.4.5.&.  2 ",
"B.B.B.B.B.B.B.B.B.B.B.B.:   z.b.v.b.v.b.v.b.v.b.b.v.b.b.b.v.b.b.b.v.v.b.b.b.v.b.b.b.v.b.b.b.z.    ;.5.5.5.4.3.3.4.4.4.3.5.&.  2 ",
"B.B.B.B.B.B.B.B.B.B.B.B.  o .                                                                 O   n R =.<.3.5.5.5.4.4.3.5.&.  2 ",
"B.B.B.B.B.B.B.B.B.B.B.B.    : > > > > > > > > > > > > > > > > > > > > > > > > > > > > > > > :   X         m %.-.<.4.5.5.5.&.  2 ",
"B.B.B.B.B.B.B.B.B.B.B.B.B.B.B.B.B.B.B.B.B.B.B.B.B.B.B.B.B.B.B.B.B.B.B.B.B.B.B.B.B.B.B.B.B.B.B.B.B.# 2 2 X         M %.-.2.&.  2 ",
"B.B.B.B.B.B.B.B.B.B.B.B.B.B.B.B.B.B.B.B.B.B.B.B.B.B.B.B.B.B.B.B.B.B.B.B.B.B.B.B.B.B.B.B.B.B.B.B.B.B.B.B.B.$ 2 2 .       & i     ",
"B.B.B.B.B.B.B.B.B.B.B.B.B.B.B.B.B.B.B.B.B.B.B.B.B.B.B.B.B.B.B.B.B.B.B.B.B.B.B.B.B.B.B.B.B.B.B.B.B.B.B.B.B.B.B.B.B.$ 2 2     .   ",
"B.B.B.B.B.B.B.B.B.B.B.B.B.B.B.B.B.B.B.B.B.B.B.B.B.B.B.B.B.B.B.B.B.B.B.B.B.B.B.B.B.B.B.B.B.B.B.B.B.B.B.B.B.B.B.B.B.B.B.B.B.X     "
};
