/* XPM */
static char *result[] = {
/* columns rows colors chars-per-pixel */
"32 32 9 1 ",
"  c #231605",
". c #362107",
"X c #323232",
"o c #462B0A",
"O c #345E27",
"+ c #3E772C",
"@ c #6E4411",
"# c #925E1E",
"$ c #579F41",
/* pixels */
"XXX$$$$$$$$$$$$$$$$$$$$$$$$$$$$$",
"X++$$$$$$$$$$$$$$$$$$$$$$$$$$$$$",
"X++++$++++++$$$+$$+++++++$$$$$$$",
"++++$$++++++++++++++++++++++$$++",
"++++++++++++++++++++++++++++++++",
"OOOO+OOO+++++++OOO+++OOO++++O+++",
"OO.OOOOO     .OOOO@@@. OOOOOOOOO",
"XO.OOOO..    .oOOO@@.  OOOOO. O ",
"XXXooOO#.     ..OO..   OOOO@.   ",
"XXX.oOO@.            ...OOO..   ",
"X  .ooO..  .....    ..##OO      ",
"X   ....  .@@##.    .@@##.      ",
"XX        ..@@#.    .o@@@.    ..",
"XX         ..@@.    .oo@@.    .#",
"XX.  ....   ...      .....   ..#",
"XX. ..@##.           .      ..@@",
"X#. .@@@#.  ...             .@@@",
"XX.  .@@.  .@#..  ....    ...@@@",
"XX.  ....  .@##.. .@#.    ..o@@@",
"X.         .oo##. .o@.    .ooo@.",
"XX   .....  .o@@.  ..      ..o..",
"XX   .@@##.  ....    ..     ... ",
"XX  .@o@@#.         ..#...      ",
"XX   .oo@@.         .@###..  ...",
"XXX....ooo.         .@@@@.. .@. ",
"XXoo. ..oo.    .    .@@@.   .@. ",
"  ...  ....  ..#.   .oo.    ..  ",
"XX ..  .    ..@#.   .o.         ",
"XXX.  .@..  .oo@.    ..      .. ",
"XX#.  .oo.  .....    ..     .##.",
"XX##.  ...            .  ...@@##",
"X@@@@.                  ..@@@@@@"
};
