/* XPM */
static char *result[] = {
/* columns rows colors chars-per-pixel */
"32 32 9 1 ",
"  c #231605",
". c #362107",
"X c #323232",
"o c #462B0A",
"O c #345E27",
"+ c #3E772C",
"@ c #6E4411",
"# c #925E1E",
"$ c #579F41",
/* pixels */
"$$$$$$$$$$$$$$$$$$$$$$$$$$$$$$XX",
"+++$$$$$$$$$$$$$$$$$$$$$$$$$$$$X",
"+++++$++++++$$$+$$+++++++$$$$$$$",
"++++$$++++++++++++++++++++++$$++",
"++++++++++++++++++++++++++++++++",
"OOOO+OOO+++++++OOO+++OOO++++O+++",
"  .OOOOO     .OOOO@@@. OOOOOO+OO",
"  .OOOO..    .oOOO@@.  OOOOO.OOO",
"  .ooOO#.     ..OO..   OOOO@.  O",
"   .oOO@.            ...OOO.. XO",
"   .ooO..  .....    ..##OO    XX",
"    ....  .@@##.    .@@##.    XX",
"          ..@@#.    .o@@@.    .X",
"..         ..@@.    .oo@@.    .X",
"#..  ....   ...      .....   XXX",
"##. ..@##.           .      .XXX",
"@#. .@@@#.  ...             .@XX",
"@@.  .@@.  .@#..  ....    ...@@X",
"@@.  ....  .@##.. .@#.    ..o@@X",
"@.         .oo##. .o@.    .oXXXX",
"@.   .....  .o@@.  ..      ..XXX",
".    .@@##.  ....    ..     ..XX",
"    .@o@@#.         ..#...    XX",
"     .oo@@.         .@###..  .XX",
"  .....ooo.         .@@@@.. .@.X",
"  oo. ..oo.    .    .@@@.   .@XX",
"  ...  ....  ..#.   .oo.    ..XX",
"   ..  .    ..@#.   .o.       XX",
" ...  .@..  .oo@.    ..      .XX",
".##.  .oo.  .....    ..     .##X",
"@@##.  ...            .  ...@@#X",
"@@@@@.                  ..@@@@XX"
};
