/* XPM */
static char *result[] = {
/* columns rows colors chars-per-pixel */
"42 39 184 2 ",
"   c #1C1004",
".  c #241A0A",
"X  c #291D0D",
"o  c #221604",
"O  c #29200F",
"+  c #32270F",
"@  c #272015",
"#  c #2D2314",
"$  c #2A2318",
"%  c #352C1D",
"&  c #3C3424",
"*  c #423100",
"=  c #473A1D",
"-  c #4C3E22",
";  c #433C2B",
":  c #48412F",
">  c #504220",
",  c #574827",
"<  c #51452E",
"1  c #56482D",
"2  c #544A34",
"3  c #5B4E35",
"4  c #554A38",
"5  c #5E5137",
"6  c #57503D",
"7  c #5C533B",
"8  c #62553C",
"9  c #675A3E",
"0  c #5F5642",
"q  c #5F5943",
"w  c #615743",
"e  c #645A43",
"r  c #655E49",
"t  c #695E4D",
"y  c #695F56",
"u  c #655E58",
"i  c #685F59",
"p  c #675D54",
"a  c #67604B",
"s  c #6B634D",
"d  c #6B6147",
"f  c #71654D",
"g  c #6E6552",
"h  c #6E6854",
"j  c #6C635A",
"k  c #726654",
"l  c #736A56",
"z  c #70675D",
"x  c #756D59",
"c  c #7A6E5C",
"v  c #796B51",
"b  c #7F7156",
"n  c #76715B",
"m  c #7C725C",
"M  c #726B61",
"N  c #777164",
"B  c #7A7465",
"V  c #7E7862",
"C  c #7C766A",
"Z  c #7E7A6E",
"A  c #7F7C70",
"S  c #80725E",
"D  c #85785F",
"F  c #817766",
"G  c #847C65",
"H  c #8C7D65",
"J  c #85766F",
"K  c #837C6B",
"L  c #8C7F6A",
"P  c #807D71",
"I  c #8C7D76",
"U  c #877C78",
"Y  c #8A7E78",
"T  c #878066",
"R  c #8E8166",
"E  c #85806C",
"W  c #8C836B",
"Q  c #918264",
"!  c #92856B",
"~  c #95896F",
"^  c #9B8B6C",
"/  c #858274",
"(  c #8A8573",
")  c #8C8976",
"_  c #87847A",
"`  c #8B8379",
"'  c #8D8B7D",
"]  c #938B73",
"[  c #92857C",
"{  c #938C7B",
"}  c #9C8F7C",
"|  c #988C72",
" . c #979075",
".. c #999276",
"X. c #94927D",
"o. c #9B937A",
"O. c #9F987B",
"+. c #A08E67",
"@. c #A1906D",
"#. c #A69573",
"$. c #A99772",
"%. c #AA9976",
"&. c #A1957C",
"*. c #AB9B79",
"=. c #C5AB77",
"-. c #8F8D80",
";. c #908E81",
":. c #998C83",
">. c #939283",
",. c #999583",
"<. c #9B9A85",
"1. c #9C9A8B",
"2. c #9E9C91",
"3. c #A59C86",
"4. c #A49C8B",
"5. c #A79A83",
"6. c #A49D92",
"7. c #AA9E94",
"8. c #AEA084",
"9. c #A3A28B",
"0. c #B3A68A",
"q. c #B7AA8E",
"w. c #B8AB8E",
"e. c #B6A385",
"r. c #A3A294",
"t. c #AFA592",
"y. c #ADAB9B",
"u. c #A7A59B",
"i. c #BAAD91",
"p. c #B3AC9B",
"a. c #BBAD9B",
"s. c #B0A39A",
"d. c #BEB195",
"f. c #BEB39F",
"g. c #ACABA2",
"h. c #BAAFA6",
"j. c #B5B2A2",
"k. c #BBB5A5",
"l. c #BDBBAA",
"z. c #C5AD81",
"x. c #CEB893",
"c. c #C2B49A",
"v. c #C2B5A4",
"b. c #C3BBA6",
"n. c #C6BDAA",
"m. c #C9BCA9",
"M. c #C5B9A7",
"N. c #C9BDB1",
"B. c #C7C0AB",
"V. c #CAC2AC",
"C. c #D4C3A5",
"Z. c #D8C7A9",
"A. c #D9C8AB",
"S. c #D5C6AD",
"D. c #CEC4B3",
"F. c #CFC8B3",
"G. c #CEC2B8",
"H. c #D1C4B3",
"J. c #D4C9B4",
"K. c #D1C6BA",
"L. c #D5CABB",
"P. c #D8CEBA",
"I. c #DBCCB0",
"U. c #DCD2BC",
"Y. c #DACEC1",
"T. c #DDD4C3",
"R. c #E2D6C2",
"E. c #E4D9C5",
"W. c #E6DCC9",
"Q. c #E9DECA",
"!. c #ECE1CD",
"~. c #EBE2D2",
"^. c #EDE7D9",
"/. c #EEE8D9",
"(. c #F3E7D1",
"). c #F5E9D5",
"_. c #F0E7D9",
"`. c #F4ECDD",
"'. c #FAF1DE",
"]. c #F6EEE0",
"[. c #FBF3E4",
"{. c #FFF7E8",
"}. c #FFFAEB",
"|. c None",
/* pixels */
"|.|.|.|.|.|.|.|.|.|.|.|.|.|.|.|.|.|.|.|.|.|.|.G.G.L.|.|.|.|.|.|.|.|.|.|.|.|.|.|.|.|.",
"|.|.|.|.|.|.|.|.|.|.|.|.|.|.|.|.|.|.|.|.|.|.K.Y.K.G.K.n.,.|.|.|.|.|.|.|.|.|.|.|.|.|.",
"|.|.|.|.|.|.|.|.|.|.|.|.|.|.|.|.|.|.|.|.Y.Y.H.k.7.{ { N.k.<.1.9.|.|.|.|.|.|.|.|.|.|.",
"|.|.|.|.|.|.|.|.|.|.|.|.|.|.|.|.|.|.|.G.T.N.n.p.t.n.4.g ,.<.<.9.9.9.|.|.|.|.|.|.|.|.",
"|.|.|.|.|.|.|.|.|.|.|.|.|.|.|.|.|.T.I M.N.N.B.V.D.V.J.3.8 K ,.X.,.9.9.<.|.|.|.|.|.|.",
"|.|.|.|.|.|.|.|.|.|.|.|.|.|.`.).).J.s.N.n.n.B.m.m.n.H.m.c k { <.<.X.,.9.<.|.|.|.|.|.",
"|.|.|.|.|.|.|.|.|.|.|.|.].}.`.!.Q.M.7.7.n.V.m.V.V.a.v.H.L s x F ) ,.,.,.9.|.|.|.|.|.",
"|.|.|.|.|.|.|.|.|.|.`.[.}.!.R.E.W.p.J I p.n.V.k.} H Q a.:.t x k k V ) <.<.9.|.|.|.|.",
"|.|.|.|.|.|.|.|.`.[.{.^.W.E.E.E.R.7.I I 4.D.a.Q Q ! L ! L t k k k t t J X.3.} |.|.|.",
"|.|.|.|.|.|.|.{.}.^.^.!.R.E.E.W.P.:.` [ b.v.R ! ~ ! ! ! ! H e 8 w e t t x c x |.|.|.",
"|.|.|.|.|.[.{.`.~./.~.E.E.E.T.W.H.[ I 4.b.~ L ! ! ! ! ! ! c y j y j z z k k B S |.|.",
"|.|.|.|.{.}./.^.].~.T.E.E.E.W.!.h.J [ p.&.H ! ! ! L ! ! 9 6 j j z i z l x l S S |.|.",
"|.|.|.|.}.~.T.W.Y.P.W.!.W.W.E.A.&.I :.} R ! ! ! ! ~ D 3 r / ` M i z z k l l x x |.|.",
"|.|.|.[.^.n.B.b.b.F.A.Z.C.x.=.=.e.U z S ! ! ! ! ! v 1 N :.;.>.` y z z k l l v x f |.",
"|.|.[.[.E.J.n.B.F.U.U.A.C.C.A.U.a.H F i H ! ! ! f r _ >.>.-.;.' M y z k z v x k g |.",
"|.|.[.W.E.E.D.B.P.P.W.W.W.W.!.T.#.$.G p j M F Q K { >.' -.;.-.>.B y M c l z x g s |.",
"|.'.'.R.E.W.U.P.J.P.Q.R.E.E.!.m.+.*.H j j M _ F [ >.-.;.;.;.;.;.A a Z P P C l s g h ",
"|.`.Q.E.E.E.E.E.b.R.E.E.E.W.U.*.#.#.N i j N >.' / >.;.-.;.-.' >._ M A A P A n a a g ",
"|.[.U.E.E.E.Q.P.B.Q.R.E.R.W.c.+.*.^ i j z C >.;.>.;.-.-.-.-.1.2.-.A P A A P C a a s ",
"'.).R.Q.E.E.W.H.U.Q.E.E.E.P.#.#.*.! i z N A >.' -.-.>.>.2.u.u.-.A P P P A P C a r a ",
"_.!.E.E.E.E.R.P.E.E.E.E.W.c.$.#.$.@.y z F P >.-.;.;.2.g.g.2._ C P A P P P / V d a a ",
"~.E.E.E.E.E.R.R.E.E.E.E.V.0.*.#.$.%.B B G U >.-.;.;.;.2.1.A A A P A P A P P n l s s ",
"!.E.E.E.E.E.E.E.E.E.Q.J.0.w.*.#.#.%.^ T K P >.-.;.;.-.-.-./ A A P P P P P Z n n h s ",
"~.E.E.E.E.E.E.E.E.E.J.q.q.q.*.$.#.%.^ | L P >.;.;.;.;.;.;._ A A P P P P P V l n x g ",
"!.!.R.E.E.R.E.W.W.V.0.q.w.w.*.$.%.$.R ..E A >.-.;.;.;.;.;.' Z A P P P P Z n x n n a ",
").).R.E.Q.D.m.U.c.0.w.w.w.w.*.@.%.Q T O.W A >.-.-.;.-.;.;.-./ A P P P P n h n x x 6 ",
"|.).R.R.!.4.o.d.0.w.q.q.q.q.*.%.@.b  .o.] Z >.-.;.;.;.;.;.-.A A A A / C q h n x s ; ",
"|.(.E.W.U.x ..w.w.q.q.w.q.w.*.%.b T o... .C -.-.-.;.;.;.;.-./ Z A A A r e g n h q # ",
"|.!.E.!.p.7 X.w.q.q.q.q.w.w.q.Q s .... ...K ' ;.-.;.;.;.;.;./ A A / j 7 a r a s : |.",
"|.W.!.T.k k { q.w.q.q.q.q.i.8.8 T O. . ...W / >.-.;.;.;.;.>./ Z _ B 7 e a r s 6 X |.",
"|.!.!.t.* E ) 3.w.q.q.q.q.w.n 3 m ) .. ...] A >.;.;.;.;.;.;.' / A e q a a a r % o |.",
"|.).U.e V X./ ..w.q.q.q.d.~ > x n n W ......K ' ;.-.-.-.;.-.N N h q a a r a r % |.|.",
"|.U.4.n X.) /  .q.q.0.d.&.< a n n v h m ] O.] ) >.-.-.>.>.C , 5 e a a a a a a ; |.|.",
"|.p.,.) ) ) ) / 8.q.d.8.5 7 n x n n n l l V W V ' -.-.' N 3 : 2 s r r r e a a & |.|.",
"|.|.y.( E ) ) E m d.8.e 5 n x x x n x x n l h 7 q h h q - & .   6 s a r a k e # |.|.",
"|.|.|.r.>.,.1.1.E  .k e n x x x n x x n n s 5 3 5 1 = + @ . # X # 6 d g s h |.|.|.|.",
"|.|.|.p.l.j.j.l.,.> d n n n n n n n n x r 3 8 8 < & $ @ O + |.|.X O : q |.|.|.|.|.|.",
"|.|.|.|.y.j.y.,.s 8 a e d f f l g d s r 8 8 < % O   O # |.|.|.|.|.|.|.|.|.|.|.|.|.|.",
"|.|.|.|.|.|.|.|.|.|.|.|.|.|.9 8 8 5 5 8 |.|.|.|.|.|.|.|.|.|.|.|.|.|.|.|.|.|.|.|.|.|."
};
