/* XPM */
static char *result[] = {
/* columns rows colors chars-per-pixel */
"64 64 178 2 ",
"   c black",
".  c #1C0F0F",
"X  c #001400",
"o  c #121200",
"O  c #1A1A00",
"+  c #111111",
"@  c #1E1515",
"#  c #181818",
"$  c #210D0D",
"%  c #221700",
"&  c #291F00",
"*  c #271B0E",
"=  c #231C00",
"-  c #300016",
";  c #241515",
":  c #291F16",
">  c #271C1A",
",  c #2C1D1D",
"<  c #231C10",
"1  c #2B230F",
"2  c #2D221B",
"3  c #2E281C",
"4  c #3B2F13",
"5  c #33251B",
"6  c #3B2A1C",
"7  c #332A16",
"8  c #000025",
"9  c #2F1D28",
"0  c #322725",
"q  c #362A25",
"w  c #3B2C25",
"e  c #3B2C29",
"r  c #3D3026",
"t  c #3C312A",
"y  c #402E1C",
"u  c #413115",
"i  c #42321D",
"p  c #402F27",
"a  c #463524",
"s  c #493626",
"d  c #44342B",
"f  c #48352C",
"g  c #47392E",
"h  c #4C3A2A",
"j  c #523E24",
"k  c #473730",
"l  c #4D3A32",
"z  c #523D35",
"x  c #543D3A",
"c  c #593F39",
"v  c #5C4629",
"b  c #534137",
"n  c #5D4432",
"m  c #564139",
"M  c #59423B",
"N  c #614C2C",
"B  c #654C33",
"V  c #684F35",
"C  c #63493F",
"Z  c #6B4D38",
"A  c #72533E",
"S  c #7B5F3B",
"D  c #75583D",
"F  c #7D603D",
"G  c #624841",
"H  c #6B4F46",
"J  c #6C4F49",
"K  c #665141",
"L  c #6D5147",
"P  c #6C5549",
"I  c #705541",
"U  c #775840",
"Y  c #7D5C43",
"T  c #72534B",
"R  c #725A4D",
"E  c #7B5A4E",
"W  c #7B5C52",
"Q  c #7B6154",
"!  c #815E44",
"~  c #805E4F",
"^  c #805E55",
"/  c #846642",
"(  c #886746",
")  c #876844",
"_  c #8C6B45",
"`  c #81614A",
"'  c #8C6B48",
"]  c #916B4E",
"[  c #96724C",
"{  c #9D784A",
"}  c #9A764E",
"|  c #816757",
" . c #86635A",
".. c #8A665D",
"X. c #866A5B",
"o. c #8C6A5E",
"O. c #936A52",
"+. c #9E7951",
"@. c #A37C51",
"#. c #AC7D5D",
"$. c #8F6860",
"%. c #946D63",
"&. c #8F7161",
"*. c #957365",
"=. c #9A7266",
"-. c #977866",
";. c #9E7468",
":. c #9C7B6B",
">. c #A17A62",
",. c #AD7C60",
"<. c #A1766B",
"1. c #A57A6E",
"2. c #B27F62",
"3. c #AD7E73",
"4. c #AC8254",
"5. c #AE8559",
"6. c #B58A56",
"7. c #B68B5A",
"8. c #BA8D5B",
"9. c #B1825C",
"0. c #BF915E",
"q. c #A3806D",
"w. c #AB8163",
"e. c #B48562",
"r. c #BA8466",
"t. c #BB8B6E",
"y. c #BE8A63",
"u. c #A68370",
"i. c #AE8173",
"p. c #AE8975",
"a. c #B28275",
"s. c #B38C77",
"d. c #B68578",
"f. c #B58E7A",
"g. c #B88F7A",
"h. c #BC8C70",
"j. c #BF9577",
"k. c #BA927C",
"l. c #C4955D",
"z. c #CA975F",
"x. c #CA995F",
"c. c #D69F5F",
"v. c #C48C6B",
"b. c #CE8F6F",
"n. c #C08C65",
"m. c #C59562",
"M. c #C89761",
"N. c #CC9A62",
"B. c #CE906D",
"V. c #CC9A6B",
"C. c #D49F63",
"Z. c #D2976C",
"A. c #D09D68",
"S. c #C39576",
"D. c #CE9070",
"F. c #C89871",
"G. c #C59874",
"H. c #DD9C71",
"J. c #D6A164",
"K. c #D9A265",
"L. c #E5A76D",
"P. c #E7A375",
"I. c #ECA974",
"U. c #E8A473",
"Y. c #F2AC75",
"T. c #F5AB78",
"R. c #FCAD7C",
"E. c #FEB37D",
"W. c #FEB87F",
"Q. c #FEB681",
"!. c #FEB981",
"~. c #FEBC8D",
"^. c #FEC694",
"/. c #FECC97",
"(. c #FECD99",
"). c #FED19C",
"_. c #FED6A1",
"`. c None",
/* pixels */
"`.`.`.`.`.`.`.`.`.`.`.`.`.`.`.`.`.`.`.`.`.`.`.`.`.r 5 %               > 0 e `.`.`.`.`.`.`.`.`.`.`.`.`.`.`.`.`.`.`.`.`.`.`.`.`.`.",
"`.`.`.`.`.`.`.`.`.`.`.`.`.`.`.`.`.`.`.`.`.e             @ t l b l r 9             2 r `.`.`.`.`.`.`.`.`.`.`.`.`.`.`.`.`.`.`.`.`.",
"`.`.`.`.`.`.`.`.`.`.`.`.`.`.`.`.`.`.t >     0 R &.1.p.p.f.f.f.f.f.f.s.s.p.u.*.Q M       , t `.`.`.`.`.`.`.`.`.`.`.`.`.`.`.`.`.`.",
"`.`.`.`.`.`.`.`.`.`.`.`.`.`.`.`.`.0     Q 1.s.k.k.k.j.k.k.j.k.k.k.k.j.k.k.k.k.j.f.s.-.R       e `.`.`.`.`.`.`.`.`.`.`.`.`.`.`.`.",
"`.`.`.`.`.`.`.`.`.`.`.`.`.`.`.q X   Q f.k.k.k.k.k.k.k.k.k.k.k.k.k.k.k.f.k.k.k.k.k.k.k.k.p.&.X   2 `.`.`.`.`.`.`.`.`.`.`.`.`.`.`.",
"`.`.`.`.`.`.`.`.`.`.`.`.`.`.q   m u.j.k.k.k.k.k.k.k.k.k.k.k.k.k.k.k.k.k.k.k.k.k.k.k.j.k.k.k.s.&.    e `.`.`.`.`.`.`.`.`.`.`.`.`.",
"`.`.`.`.`.`.`.`.`.`.`.`.`.q   Q f.k.k.k.k.k.k.k.k.k.k.k.k.k.k.k.k.k.k.k.k.k.k.k.f.k.k.k.k.k.k.k.p.m   e `.`.`.`.`.`.`.`.`.`.`.`.",
"`.`.`.`.`.`.`.`.`.`.`.`.q   o.k.k.f.k.k.k.k.k.k.k.k.k.k.k.k.k.k.k.k.k.k.k.k.k.k.k.k.k.k.k.k.k.k.k.f.R   q `.`.`.`.`.`.`.`.`.`.`.",
"`.`.`.`.`.`.`.`.`.`.`.w   X.k.k.k.k.k.k.k.k.k.k.k.k.k.f.k.k.k.k.k.k.k.k.k.k.k.k.k.k.k.k.k.k.k.k.k.k.k.W   q `.`.`.`.`.`.`.`.`.`.",
"`.`.`.`.`.`.`.`.`.`.q   P k.k.k.k.k.k.k.k.k.k.k.k.k.k.k.k.k.k.k.k.k.k.k.k.k.k.k.k.k.k.k.k.k.k.k.k.k.k.k.P   q `.`.`.`.`.`.`.`.`.",
"`.`.`.`.`.`.`.`.`.`.  @ s.k.k.k.k.k.k.k.k.k.k.k.k.k.k.k.k.k.k.k.k.k.k.k.k.k.k.f.k.k.k.k.k.k.k.k.k.k.k.k.s.5   `.`.`.`.`.`.`.`.`.",
"`.`.`.`.`.`.`.`.`.w   :.k.k.k.k.k.k.k.k.k.k.k.k.k.k.k.k.k.k.k.k.k.k.k.k.k.k.k.k.k.k.k.k.k.k.k.k.k.k.k.k.j.:.  e `.`.`.`.`.`.`.`.",
"`.`.`.`.`.`.`.`.`.  P k.k.k.k.k.k.k.k.k.k.k.k.k.k.k.k.k.k.k.k.k.k.k.k.k.k.k.k.k.k.k.k.k.k.k.k.k.k.k.k.k.k.k.P   `.`.`.`.`.`.`.`.",
"`.`.`.`.`.`.`.`.7   u.S.k.k.k.k.k.k.k.k.k.k.k.k.k.k.k.k.k.k.k.k.k.k.k.k.k.k.k.k.k.k.k.k.k.k.k.f.k.k.k.k.k.k.u.  w `.`.`.`.`.`.`.",
"`.`.`.`.`.`.`.w   Q k.k.k.k.k.k.k.k.k.k.k.k.k.k.k.k.k.k.k.k.k.k.k.k.k.k.k.k.k.k.k.k.k.k.k.k.k.k.k.k.k.k.k.k.k.P   `.`.`.`.`.`.`.",
"`.`.`.`.`.`.`.9   p.k.k.k.k.k.k.k.k.k.k.k.f.k.k.k.k.k.k.k.k.k.k.k.k.k.k.k.k.k.k.k.k.k.k.k.k.k.k.k.k.k.k.k.k.j.q.  q `.`.`.`.`.`.",
"`.`.`.`.`.`.r   X.k.k.k.k.k.k.k.k.k.k.k.k.k.k.k.k.k.k.k.k.k.k.k.k.k.k.k.k.k.k.k.k.k.k.k.k.k.k.k.k.k.k.k.k.k.k.f.K   `.`.`.`.`.`.",
"`.`.`.`.`.`..   f.k.k.k.k.k.k.k.k.k.k.k.f.k.k.k.k.k.k.k.k.k.k.k.f.k.k.k.k.k.k.k.k.k.k.k.k.k.k.k.k.k.k.k.k.k.k.j.:.  w `.`.`.`.`.",
"`.`.`.`.`.t   o.k.k.k.k.k.k.k.k.k.k.k.k.k.k.k.k.k.k.k.k.k.k.k.f.k.k.k.k.k.k.k.k.k.k.k.k.f.k.k.k.k.k.k.k.k.k.k.k.f.k   `.`.`.`.`.",
"`.`.`.`.`.*   p.k.f.k.k.k.k.k.k.k.k.k.k.k.k.k.k.k.k.k.k.k.k.k.k.k.k.k.k.k.k.k.k.k.k.k.k.k.k.k.k.k.k.f.k.k.k.k.k.k.&.  `.`.`.`.`.",
"`.`.`.`.`.  Q k.k.k.k.k.k.k.k.k.k.k.k.k.k.k.k.k.k.k.k.k.k.k.k.k.k.k.k.k.k.k.k.k.k.k.k.k.k.k.k.k.k.k.k.k.k.k.k.f.j.u.  q `.`.`.`.",
"`.`.`.`.w   q.j.k.k.k.k.k.k.k.k.k.k.k.k.k.k.k.k.k.k.k.k.k.k.k.k.k.k.k.k.k.k.k.k.k.k.k.k.k.k.k.k.k.k.k.k.k.k.k.k.k.s.k   `.`.`.`.",
"`.`.`.`.  d s.k.k.k.k.k.k.k.k.k.k.k.k.k.k.k.k.k.k.k.k.k.k.k.k.k.k.k.k.k.k.k.k.k.k.k.k.k.k.k.k.k.k.k.k.k.k.k.k.k.k.k.Q   `.`.`.`.",
"`.`.`.`.  Q k.k.k.k.k.k.k.k.k.k.k.k.k.k.k.k.k.k.k.k.k.k.k.k.k.k.k.k.k.k.k.k.k.k.k.k.k.k.k.k.k.k.k.k.k.k.k.k.k.k.k.k.*.  `.`.`.`.",
"`.`.`.d   *.k.k.k.k.k.k.k.k.k.k.k.k.k.k.k.k.k.k.k.k.k.k.k.k.k.k.k.k.k.k.k.k.k.k.k.k.k.k.k.k.k.k.k.k.k.k.k.k.k.k.k.Q.1.  t `.`.`.",
"`.`.`.e   u.k.j.k.k.k.k.k.k.k.k.k.k.k.k.k.k.k.k.k.k.k.k.k.k.k.k.k.k.k.k.k.k.k.k.k.k.k.k.k.f.k.k.k.k.k.k.k.k.k.k.p.u.p.  0 `.`.`.",
"`.`.`.,   p.k.k.k.k.k.k.k.k.k.k.k.k.k.k.k.k.k.k.k.k.k.k.k.k.k.k.f.k.k.k.k.k.k.k.k.k.k.k.k.k.k.k.k.k.k.k.k.k.k.k.f.k.p.  # `.`.`.",
"`.`.`.  2 f.k.k.k.k.k.k.k.k.k.k.k.k.k.k.k.k.k.k.k.k.k.k.k.k.k.j.k.k.k.k.k.k.k.k.k.k.k.k.k.k.k.k.k.k.k.k.k.k.k.k.k.k.f.e   `.`.`.",
"`.`.`.  d f.k.k.k.k.k.k.k.k.k.k.k.k.k.k.k.k.k.k.f.k.j.G.A.C.C.C.C.C.A.F.j.k.k.k.g.k.k.k.k.k.k.k.k.k.k.k.k.k.k.k.k.k.s.k   `.`.`.",
"`.`.`.  b f.k.k.k.k.k.k.k.k.k.k.k.k.k.k.k.k.k.k.j.F.C.J.c.C.C.C.C.C.c.J.C.C.G.k.k.k.k.k.k.k.k.k.k.k.k.k.k.k.k.k.k.k.f.b   `.`.`.",
"`.`.`.  b f.k.k.k.k.k.k.k.k.k.k.k.k.k.k.k.k.k.V.J.c.C.C.C.C.C.C.C.C.J.C.C.C.c.C.S.k.k.k.k.k.k.k.k.k.k.k.k.k.k.k.k.k.f.b   `.`.`.",
"`.`.`.  d f.j.f.f.k.g.k.k.k.k.k.k.k.k.k.f.k.A.c.C.J.C.C.C.C.J.C.C.C.C.C.C.C.C.C.J.G.k.k.k.k.k.k.k.k.k.k.k.g.g.k.k.k.f.g   `.`.`.",
"`.`.`.  + i.d.a.3.T m W *.a.k.k.k.k.k.k.k.J.c.J.C.C.C.C.C.C.J.C.J.C.C.C.J.C.C.J.C.c.V.k.k.k.k.k.k.k.a.*.W m T 3.3.d.i.+   `.`.`.",
"`.`.`.,   <.3.3.3.T       - =.d.f.k.k.j.J.J.N.C.C.J.C.C.J.C.C.C.C.C.C.C.C.C.C.C.C.C.C.G.g.k.k.s.d.;.-       T 3.3.a.<.  , `.`.`.",
"`.`.`.6   =.a.3.a.3.1.=.W     ;.a.a.f.V.c.A.C.C.C.C.J.C.C.J.C.C.C.C.J.C.C.C.C.C.J.C.C.C.S.f.d.a.;.    W =.1.a.3.3.a.=.  6 `.`.`.",
"`.`.`.`.   .a.3.3.a.i.a.a.%.  G i.3.t.J.N.J.C.J.C.J.A._ _ C.J.J.C.J.C._ _ J.C.J.C.C.C.J.V.3.3.i.G   o.a.a.a.3.a.i.a. .  `.`.`.`.",
"`.`.`.`.  G a.a.3.3.3.3.3.a.J T a.3.V.J.J.C.C.C.C.J.7.  D x.C.c.J.J.x.D   0.J.J.C.C.C.C.C.t.3.a.T J 3.3.3.3.3.i.a.3.G   `.`.`.`.",
"`.`.`.`..   1.3.a.a.a.a.3.a.3.3.3.h.J.A.C.C.C.C.C.J._   6.L.Y.R.T.Y.L.5.  _ J.C.C.C.J.C.C.V.i.i.i.3.a.a.a.a.a.i.a.1.  . `.`.`.`.",
"`.`.`.`.e   o.a.3.1.=.%. .W J C 8 _ A.J.C.C.C.c.J.m.  B I.Q.E.E.W.W.E.I.v   l.J.C.C.C.C.C.A.E 9 G J W  .%.<.1.3.d...  e `.`.`.`.",
"`.`.`.`.`.  x ^ M                 ) J.C.C.C.C.C.J.4.  y.E.E.E.E.E.E.E.!.y.  4.J.C.C.C.C.C.C./                 c W x   `.`.`.`.`.",
"`.`.`.`.  .       M E  .%.;.3.3.i.C.J.C.J.C.C.C.C.S   U.E.E.E.E.E.E.E.W.P.  F C.C.C.C.C.J.C.v.3.3.1.<.%. .W M       .   `.`.`.`.",
"`.`.      @   z 1.3.a.d.d.i.<...E S h _ A.J.C.J.M.  ! E.E.E.E.E.E.E.E.E.R.Y   M.K.C.J.A._ j I W ..<.i.a.d.a.3.1.z   .       `.`.",
"`.`.    `.`.1   =.d.3.;.^ d           ) C.C.C.J.7.  e.W.E.E.E.E.E.E.E.R.Q.9.  8.J.C.C.C.)           d ^ ;.3.d.=.  1 `.`.    `.`.",
"`.`.`.`.`.`.`.  k %.L       p   >.C.N.C.C.c.C.J.@.  Z.W.E.E.E.E.E.E.E.E.!.Z.  @.J.C.J.C.A.A.m.%.o w       H %.f   `.`.`.`.`.`.`.",
"`.`.`.`.`.`.`.$       c ..3.W   ;.l.} V _ J.C.J._   U.E.E.E.E.E.E.E.R.E.W.L.  _ C.C.C._ V { e.%.  ^ 3...c       $ `.`.`.`.`.`.`.",
"`.`.`.`.`.`.    ,   T a.a.d.%.          ) C.C.c.N , T.Q.E.E.E.E.E.E.W.R.E.T.  B C.J.C.)       =   %.d.a.a.T   ,     `.`.`.`.`.`.",
"`.`.`.`.`.      O +   =.d.=.M     _ 6.M.C.J.J.z.  ! R.E.E.E.E.E.E.E.E.E.E.E.Y   N.C.C.C.z.7.`     M =.a.=.  + O       `.`.`.`.`.",
"`.`.`.`.      `.`.`.  , W     a   8.K.J.C.C.J.l.  ] E.E.E.E.E.E.E.E.E.R.E.E.]   l.J.C.C.J.K.w.  a     ^ 9   `.`.`.      `.`.`.`.",
"`.`.`.      `.`.`.`.;       =.%.  _ J.C.C.C.K.l.  #.Q.R.Q.E.E.E.E.E.Q.Q.R.E.#.  l.C.C.C.C.A.`   %.=.      ; `.`.`.`.      `.`.`.",
"`.`.      `.`.`.`.`.  . 2   =.i.f   l.J.C.C.K.7.  Y ' Y 2.H.E.E.E.R.H.2.U O.Y   7.J.C.C.K.M.  f 3.=.  2 .   `.`.`.`.`.      `.`.",
"`.`.    `.`.`.`.`.      #     .. .  +.J.C.C.J.7.            Z ,.5.Z             8.J.C.c.K.+.   ...    #       `.`.`.`.`.    `.`.",
"`.`.`.`.`.`.`.`.      `.`.`.*   l   + z.J.C.J.7.  Z Q.^.Q.r.        2.Q.^.Q.B   7.J.A.J.M.+   l   * `.`.`.      `.`.`.`.`.`.`.`.",
"`.`.`.`.`.`.`.`.    `.`.`.`.`.,   6   { J.C.J.7.  D._.).).).~.I U ~._.).)._.B.  8.J.C.J.{   6   , `.`.`.`.`.    `.`.`.`.`.`.`.`.",
"`.`.`.`.`.`.`.    `.`.`.`.`.`.`.@ o 1   l.K.K.l.  r.).(./.).^.B n /.(./.(.).r.  l.C.K.z.  & o @ `.`.`.`.`.`.`.    `.`.`.`.`.`.`.",
"`.`.`.`.`.`.      `.`.`.`.`.`.`.`.`.6   / J.J.N.n   ~.).(.(.(.2.2.(.(.(.).~.  n N.C.C./   6 `.`.`.`.`.`.`.`.`.      `.`.`.`.`.`.",
"`.`.`.`.`.`.    `.`.`.`.`.`.`.`.`.`.`.y   5.J.J.4.  ,.(.(.(.).(.(.).(.(.(.,.  4.K.K.5.  i `.`.`.`.`.`.`.`.`.`.`.    `.`.`.`.`.`.",
"`.`.`.`.`.`.`.`.`.`.`.`.`.`.`.`.`.`.`.`.%   l.J.A.S   b.).).(.(.(.(.(._.b.  S A.J.l.  % `.`.`.`.`.`.`.`.`.`.`.`.`.`.`.`.`.`.`.`.",
"`.`.`.`.`.`.`.`.`.`.`.`.`.`.`.`.`.`.`.`.y   B N.K.l.c   v./._.(.(._./.v.  c l.K.N.B   6 `.`.`.`.`.`.`.`.`.`.`.`.`.`.`.`.`.`.`.`.",
"`.`.`.`.`.`.`.`.`.`.`.`.`.`.`.`.`.`.`.`.`.a   / C.J.l.B   O.R.^.^.Q.O.  B l.K.C./   a `.`.`.`.`.`.`.`.`.`.`.`.`.`.`.`.`.`.`.`.`.",
"`.`.`.`.`.`.`.`.`.`.`.`.`.`.`.`.`.`.`.`.`.`.i   / A.K.M.'     A I     ' m.K.C./   i `.`.`.`.`.`.`.`.`.`.`.`.`.`.`.`.`.`.`.`.`.`.",
"`.`.`.`.`.`.`.`.`.`.`.`.`.`.`.`.`.`.`.`.`.`.`.i   F N.K.J.8.[     [ l.J.K.M.S   i `.`.`.`.`.`.`.`.`.`.`.`.`.`.`.`.`.`.`.`.`.`.`.",
"`.`.`.`.`.`.`.`.`.`.`.`.`.`.`.`.`.`.`.`.`.`.`.`.u   s 4.z.C.7.    6.C.z.4.s   u `.`.`.`.`.`.`.`.`.`.`.`.`.`.`.`.`.`.`.`.`.`.`.`.",
"`.`.`.`.`.`.`.`.`.`.`.`.`.`.`.`.`.`.`.`.`.`.`.`.`.4     + s         s +     4 `.`.`.`.`.`.`.`.`.`.`.`.`.`.`.`.`.`.`.`.`.`.`.`.`.",
"`.`.`.`.`.`.`.`.`.`.`.`.`.`.`.`.`.`.`.`.`.`.`.`.`.`.`.i     2 6.4.      i `.`.`.`.`.`.`.`.`.`.`.`.`.`.`.`.`.`.`.`.`.`.`.`.`.`.`."
};
