/* XPM */
static char *result[] = {
/* columns rows colors chars-per-pixel */
"32 32 8 1 ",
"  c #231605",
". c #362107",
"X c #462B0A",
"o c #345E27",
"O c #3E772C",
"+ c #6E4411",
"@ c #925E1E",
"# c #579F41",
/* pixels */
"################################",
"OOO#############################",
"OOOOO#OOOOOO###O##OOOOOOO#######",
"OOOO##OOOOOOOOOOOOOOOOOOOOOO##OO",
"OOOOOOOOOOOOOOOOOOOOOOOOOOOOOOOO",
"ooooOoooOOOOOOOoooOOOoooOOOOoOOO",
"  .ooooo     .oooo+++. ooooooooo",
"  .oooo..    .Xooo++.  ooooo. o ",
"  .XXoo@.     ..oo..   oooo+.   ",
"   .Xoo+.            ...ooo..   ",
"   .XXo..  .....    ..@@oo      ",
"    ....  .++@@.    .++@@.      ",
"          ..++@.    .X+++.    ..",
"..         ..++.    .XX++.    .@",
"@..  ....   ...      .....   ..@",
"@@. ..+@@.           .      ..++",
"+@. .+++@.  ...             .+++",
"++.  .++.  .+@..  ....    ...+++",
"++.  ....  .+@@.. .+@.    ..X+++",
"+.         .XX@@. .X+.    .XXX+.",
"+.   .....  .X++.  ..      ..X..",
".    .++@@.  ....    ..     ... ",
"    .+X++@.         ..@...      ",
"     .XX++.         .+@@@..  ...",
"  .....XXX.         .++++.. .+. ",
"  XX. ..XX.    .    .+++.   .+. ",
"  ...  ....  ..@.   .XX.    ..  ",
"   ..  .    ..+@.   .X.         ",
" ...  .+..  .XX+.    ..      .. ",
".@@.  .XX.  .....    ..     .@@.",
"++@@.  ...            .  ...++@@",
"+++++.                  ..++++++"
};
