/* XPM */
static char *result[] = {
/* columns rows colors chars-per-pixel */
"32 32 6 1 ",
"  c #231605",
". c #362107",
"X c #323232",
"o c #462B0A",
"O c #6E4411",
"+ c #925E1E",
/* pixels */
"XX+.                     ..OO++O",
"OO+.    ...                .OO++",
"XO.    ..++.   ....        .oOOO",
"X.     .oo++. .OO++.     . .ooOO",
"XX      .o.. .OOOO+O.   .....ooO",
"XX .     ..  .OOOOO+O.  .+.  ...",
"X ......     .oOOOOOO. .Oo+.    ",
"X .OO++..    .oooOOO.  ..o++.   ",
"XX.ooO++.     ......    ...O.   ",
"X  .oOOO.            ...   ..   ",
"XX .ooO..  .....    ..++.       ",
"XX  ....  .OO++.    .OO++.      ",
"XX        ..OO+.    .oOOO.    ..",
"..         ..OO.    .ooOO.    .+",
"X..  ....   ...      .....   ..+",
"X+. ..O++.           .      ..OO",
"XX. .OOO+.  ...             .OOO",
"XX.  .OO.  .O+..  ....    ...OOO",
"OO.  ....  .O++.. .O+.    ..oOOO",
"XX         .oo++. .oO.    .oooO.",
"XXX  .....  .oOO.  ..      ..o..",
"XXXXX.OO++.  ....    ..     ... ",
"X X .OoOO+.         ..+...      ",
"X    .ooOO.         .O+++..  ...",
"XXX....ooo.         .OOOO.. .O. ",
"XXXo. ..oo.    .    .OOO.   .O. ",
"XX...  ....  ..+.   .oo.    ..  ",
"XX ..  .    ..O+.   .o.         ",
"X...  .O..  .ooO.    ..      .. ",
"XX+.  .oo.  .....    ..     .++.",
"XX++.  ...            .  ...OO++",
"XXOOO.                  ..OOOOOO"
};
