/* XPM */
static char *result[] = {
/* columns rows colors chars-per-pixel */
"240 40 45 1 ",
"  c #000000",
". c #0C0C0C",
"X c #141414",
"o c #1B1B1B",
"O c #332B14",
"+ c #3C3318",
"@ c #232323",
"# c #2B2B2B",
"$ c #343434",
"% c #3B3B3B",
"& c #6F5E2C",
"* c #434343",
"= c #4B4B4B",
"- c #545454",
"; c #5D5D5D",
": c #646464",
"> c #6B6B6B",
", c #747474",
"< c #7D7D7D",
"1 c red",
"2 c #907A39",
"3 c #A08840",
"4 c #B39848",
"5 c #C9AB50",
"6 c #D5B555",
"7 c #DDBC58",
"8 c #FBD664",
"9 c #FFD966",
"0 c #848484",
"q c #8C8C8C",
"w c #949494",
"e c #9B9B9B",
"r c #A3A3A3",
"t c #ABABAB",
"y c #B3B3B3",
"u c #BCBCBC",
"i c #C3C3C3",
"p c #CBCBCB",
"a c #D3D3D3",
"s c #DDDDDD",
"d c #E4E4E4",
"f c #EBEBEB",
"g c #F3F3F3",
"h c #FEFEFE",
"j c None",
/* pixels */
"jjjjjjjjj111999999999999999997                                                                                                                                                                   89999O         &9999999999999999999111jjjjjjjjj",
"jjjjjjjjj111999999999999999997,<o       0<                                                                          X>eew=               >>  ;<                                          .<=  <- 89999Oo0>   <0 &9999999999999999999111jjjjjjjjj",
"jjjjjjjjj111999999999999999997,ht      qh0                                                             *p          >ghfdghpo             ap  tg                      @i@                 Xhq  fy 89999O#ha   hh.&9999999999999999999111jjjjjjjjj",
"jjjjjjjjj111999999999999999997 ih;    $gp                                                              tf         <hi$  .0hp             aa  yg                      <h@                 Xhq  gy 89999O$ha   hh &9999999999999999999111jjjjjjjjj",
"jjjjjjjjj111999999999999999997 @gfX   ag#                                                              yg        @ga.     eh:            aa  th                      <h@                 ohq  gy 89999O#ha   hh &9999999999999999999111jjjjjjjjj",
"jjjjjjjjj111999999999999999997  ,ht  <h>   >ahfr#   rw    <u       #i$qdgyootgfe.  qt    :uX  ;pggu=  tfgi,      qh;      @<#   >pgft#   aa  tg   Xqaha0     :iggt@ 0shpe       @eshfu%  Xhq  fy 89999O@hi   gg &9999999999999999999111jjjjjjjjj",
"jjjjjjjjj111999999999999999997   ih*#gu   rhy:<fg#  ap    rh       %hsa<ehpst0uh0  ud    qho =hy:>ah* ,ag0=      phX           rhy:<ff$  ap  tg  .pgq:wgu   qhu:<fdX-uhw:      ofd<:0ggo Xhq  gy 89999O.hy   sd &9999999999999999999111jjjjjjjjj",
"jjjjjjjjj111999999999999999997   @gaug@  =hw   @gp  ap    rh       %ha.  thw   fa  ud    qho tg   Xd,  yf        df           =he   @gp  aa  tg  0h-   :h: @gy   =h< <h@       qh$   ;h; Xhq  gy 89999O gr   pa &9999999999999999999111jjjjjjjjj",
"jjjjjjjjj111999999999999999997    >hh;   eh@    eho aa    rh       %h0   0h%   is  ud    0ho wh0@      tg        df           wh@    wh@ aa  th  ad     fy >h*    %X <h@        @    -h> ohq  gy 89999O fw   ui &9999999999999999999111jjjjjjjjj",
"jjjjjjjjj111999999999999999997     ga    ug     ,h* ap    rh       %h>   <h#   is  ud    qho oahhsw%   yf        ph           ug     >h* pa  yg  ggdsssdha qho       <h@        X,eifhh: Xhq  fy 89999O a<   rt &9999999999999999999111jjjjjjjjj",
"jjjjjjjjj111999999999999999997     ga    uf     >h* ap    rh       %h>   <h#   id  uf    qho  .-edhh<  yf        eh%       t; ug     >h= aa  tg  ha0<00<0> whX       <h@       %ggpw>:h> Xhq  fy 89999O i>   we &9999999999999999999111jjjjjjjjj",
"jjjjjjjjj111999999999999999997     fa    rhX    wh@ aa    uh       %h:   <h@   is  uf    rho X@   $dg  yf        =he      ;he eho    wh# aa  tg  da     @. <h$    0; <h@       ag@   -h> Xhq  gy 89999O ,%   -; &9999999999999999999111jjjjjjjjj",
"jjjjjjjjj111999999999999999997     fa    -h<   Xfs  ig.  ogh       %h>   <h#   is  tho  .dho ad    yg  tg         ph;    @fg@ -h0   Xfd  ap  tg  eh*   %hr $hw   #hq <h@       ga    th> Xhq  gy 89999O         &9999999999999999999111jjjjjjjjj",
"jjjjjjjjj111999999999999999997     fa     ihq*-ag=  <hi->ash       %h:   <h@   id  ;hp;:adhX >hy=*0he  ehe-       @dhi<;wgh:   uhq*-ag=  aa  tg  ofg,*:fg@  rhq=;sfo :hy>      yh0$=tgh< ohq  fy 89999O@hi   gg &9999999999999999999111jjjjjjjjj",
"jjjjjjjjj111999999999999999997     au     .wghhi%    wghg<>d       $s;   >d@   ti   <ghgq;sX  ,fhhfq.  #ahu        owfhhhi%    .qghhi%   uy  ea   @yghhi$    0fhhi#  Xuhf      ouhhgeoat Xd<  ae 89999Oodt   aa &9999999999999999999111jjjjjjjjj",
"jjjjjjjjj111999999999999999997               o.        @                              @         oX                    oo.         o.                 @.        oX                .@              89999O         &9999999999999999999111jjjjjjjjj",
"jjjjjjjjj111999999999999999997                                                                                                                                                                   89999O         &9999999999999999999111jjjjjjjjj",
"jjjjjjjjj111999999999999999997                                                                                                                                                                   89999O         &9999999999999999999111jjjjjjjjj",
"jjjjjjjjj111999999999999999997                                                                                                                                                                   89999O         &9999999999999999999111jjjjjjjjj",
"jjjjjjjjj111999999999999999997++++++++++++++++++++++++++++++++++++++++++++++++++++++++++++++++++++++++++++++++++++++++++++2333333333333333333333333333333333333333333333333333333333333333333333399999433333333359999999999999999999111jjjjjjjjj",
"jjjjjjjjj111999999999999999997                                                                                            6999999999999999999999999999999999999999999999999999999999999999999999999999999999999999999999999999999999111jjjjjjjjj",
"jjjjjjjjj111999999999999999997                                                                                            6999999999999999999999999999999999999999999999999999999999999999999999999999999999999999999999999999999999111jjjjjjjjj",
"jjjjjjjjj111999999999999999997                                                                                            6999999999999999999999999999999999999999999999999999999999999999999999999999999999999999999999999999999999111jjjjjjjjj",
"jjjjjjjjj111999999999999999997                       .%%.                                                                 6999999999999999999999999999999999999999999999999999999999999999999999999999999999999999999999999999999999111jjjjjjjjj",
"jjjjjjjjj111999999999999999997 fu                   $fhh-                                                   oh0   ,       6999999999999999999999999999999999999999999999999999999999999999999999999999999999999999999999999999999999111jjjjjjjjj",
"jjjjjjjjj111999999999999999997 fu                   rh>*X                                                   od,  eg       6999999999999999999999999999999999999999999999999999999999999999999999999999999999999999999999999999999999111jjjjjjjjj",
"jjjjjjjjj111999999999999999997 fy                   ud                                                           tg       6999999999999999999999999999999999999999999999999999999999999999999999999999999999999999999999999999999999111jjjjjjjjj",
"jjjjjjjjj111999999999999999997 duX,q:X     #,w,o  X;af;=  .;q0-    %-X<<@  o,w,#           =0q;.  .:-    =:..;$ -pg;%     6999999999999999999999999999999999999999999999999999999999999999999999999999999999999999999999999999999999111jjjjjjjjj",
"jjjjjjjjj111999999999999999997 fafdphd#   0hfigg- $sghst #dhaahao  esuhh, :ggifh,        .ihaphs@  rh;  -he ohq ighdq     6999999999999999999999999999999999999999999999999999999999999999999999999999999999999999999999999999999999111jjjjjjjjj",
"jjjjjjjjj111999999999999999997 fhw  $gp  -he  .yg@  id   ag%  =gi  ehp#%X$guX  eh=       rg;  #da  XdfXofa. oh0  tg       6999999999999999999999999999999999999999999999999999999999999999999999999999999999999999999999999999999999111jjjjjjjjj",
"jjjjjjjjj111999999999999999997 fd    0h$ pf    ohw  is  =h,    qh% eh=   rgo    fy      Xgt    :h=  *hrug$  @h0  tg       6999999999999999999999999999999999999999999999999999999999999999999999999999999999999999999999999999999999111jjjjjjjjj",
"jjjjjjjjj111999999999999999997 dt    =h> gs00<<0gi  is  0h$    =h> ehX   ag0<0<0dd      =hu<0<<eh,   qhh>   oh0  tg       6999999999999999999999999999999999999999999999999999999999999999999999999999999999999999999999999999999999111jjjjjjjjj",
"jjjjjjjjj111999999999999999997 fw    $h,.hgsdssdsu  is  qh@    $h, eh.   fgdsdssda      ;hfddssds,   $hh#   oh0  tg       6999999999999999999999999999999999999999999999999999999999999999999999999999999999999999999999999999999999111jjjjjjjjj",
"jjjjjjjjj111999999999999999997 fr    =h:.gy         us  <h$    =h> eh    sa             =h:         .adfp.  oh0  tg       6999999999999999999999999999999999999999999999999999999999999999999999999999999999999999999999999999999999111jjjjjjjjj",
"jjjjjjjjj111999999999999999997 dd    wh@ pg.   Xu,  is  =h<    wh$ eh    rh@   .yq      Xgy    =u%  wh-;hq  oh0  tg       6999999999999999999999999999999999999999999999999999999999999999999999999999999999999999999999999999999999111jjjjjjjjj",
"jjjjjjjjj111999999999999999997 fhw  -gy  -hyX Xyh-  is   ag*  ;gi  eh.   $hpo  eh<       rh,  #dgX =hr  yg* @hq  rh%X $e- 6999999999999999999999999999999999999999999999999999999999999999999999999999999999999999999999999999999999111jjjjjjjjj",
"jjjjjjjjj111999999999999999997 fudfdhpX   0ggsgh0   is   @ahdfhiX  eh     ;ghsfhr        Xyhfshf= XddX  ofdXoh0  ;hhu -hq 6999999999999999999999999999999999999999999999999999999999999999999999999999999999999999999999999999999999111jjjjjjjjj",
"jjjjjjjjj111999999999999999997 %@X><-      @>0,@    $$     =0,%    @*      o:<,$           %<<;X  o*@    #*X *@   %;= X*@ 6999999999999999999999999999999999999999999999999999999999999999999999999999999999999999999999999999999999111jjjjjjjjj",
"jjjjjjjjj111999999999999999997                                                                                            6999999999999999999999999999999999999999999999999999999999999999999999999999999999999999999999999999999999111jjjjjjjjj",
"jjjjjjjjj111999999999999999997                                                                                            6999999999999999999999999999999999999999999999999999999999999999999999999999999999999999999999999999999999111jjjjjjjjj"
};
