/* XPM */
static char *result[] = {
/* columns rows colors chars-per-pixel */
"64 64 214 2 ",
"   c #6E6A7A",
".  c #6E6C7B",
"X  c #716B7B",
"o  c #726C7B",
"O  c #746C7A",
"+  c #7A6D78",
"@  c #7A6D79",
"#  c #7B6D79",
"$  c #7B6E79",
"%  c #7A6D7A",
"&  c #7C6D78",
"*  c #7C6D79",
"=  c #7D6E78",
"-  c #7D6E79",
";  c #7E707D",
":  c #C66B32",
">  c #C66B34",
",  c #C76B35",
"<  c #C76C34",
"1  c #C66C35",
"2  c #C76C35",
"3  c #C76D36",
"4  c #C86D36",
"5  c #C86E37",
"6  c #C96E37",
"7  c #CD6F35",
"8  c #C96E38",
"9  c #CA6E38",
"0  c #CF7035",
"q  c #CF7036",
"w  c #CA7039",
"e  c #CA703A",
"r  c #CC733E",
"t  c #CD733E",
"y  c #D07136",
"u  c #D07137",
"i  c #D17239",
"p  c #D6753A",
"a  c #D6753B",
"s  c #D0763F",
"d  c #BB795E",
"f  c #8A6F73",
"g  c #9C7471",
"h  c #987576",
"j  c #A1746D",
"k  c #AB796C",
"l  c #A77A74",
"z  c #CE7643",
"x  c #CF7744",
"c  c #D07742",
"v  c #D27842",
"b  c #D47840",
"n  c #D17844",
"m  c #D37A44",
"M  c #DB7E46",
"N  c #D67D48",
"B  c #D77F48",
"V  c #D67E49",
"C  c #D77E49",
"Z  c #D67F49",
"A  c #D77F49",
"S  c #D67E4A",
"D  c #D77E4A",
"F  c #D67F4A",
"G  c #D77F4A",
"H  c #D67F4B",
"J  c #D77F4B",
"K  c #D87F4A",
"L  c #D87F4B",
"P  c #C17A5B",
"I  c #D68049",
"U  c #D78049",
"Y  c #D6804A",
"T  c #D7804A",
"R  c #D7804B",
"E  c #D7814B",
"W  c #D7804C",
"Q  c #D88049",
"!  c #DB8148",
"~  c #D8804A",
"^  c #D8804B",
"/  c #DB814B",
"(  c #DB824B",
")  c #DC8148",
"_  c #DC824B",
"`  c #DD824B",
"'  c #D8804C",
"]  c #D9814C",
"[  c #D8814D",
"{  c #D9814D",
"}  c #D8814E",
"|  c #D9814E",
" . c #D8824E",
".. c #D9824F",
"X. c #D9834F",
"o. c #DC824C",
"O. c #DE834C",
"+. c #DE824E",
"@. c #DF844D",
"#. c #CD825F",
"$. c #D78151",
"%. c #D98352",
"&. c #DA8352",
"*. c #DA8453",
"=. c #DA8553",
"-. c #DD8450",
";. c #DF8753",
":. c #DA8454",
">. c #DA8554",
",. c #DB8555",
"<. c #DB8656",
"1. c #DB8657",
"2. c #DB8757",
"3. c #DC8556",
"4. c #DC8656",
"5. c #DC8756",
"6. c #DC8657",
"7. c #DC8757",
"8. c #DC8857",
"9. c #DD8857",
"0. c #DF8856",
"q. c #D08058",
"w. c #DB8658",
"e. c #DB8758",
"r. c #DB8759",
"t. c #DC8658",
"y. c #DC8758",
"u. c #DC8759",
"i. c #DD8759",
"p. c #DC8858",
"a. c #DD8858",
"s. c #DC8859",
"d. c #DD8859",
"f. c #DD8959",
"g. c #DE8859",
"h. c #DF8959",
"j. c #DD885A",
"k. c #DE895A",
"l. c #E0844C",
"z. c #E1844C",
"x. c #E0844D",
"c. c #E0854D",
"v. c #E1854D",
"b. c #E2864D",
"n. c #E1854E",
"m. c #E2854E",
"M. c #E2864E",
"N. c #E3864E",
"B. c #E7874C",
"V. c #E4874E",
"C. c #E4874F",
"Z. c #E5874F",
"A. c #E6884F",
"S. c #E7884F",
"D. c #E8894F",
"F. c #E08955",
"G. c #E08856",
"H. c #E58A56",
"J. c #E88950",
"K. c #E98A50",
"L. c #EA8A50",
"P. c #EA8A51",
"I. c #EB8B51",
"U. c #EC8B51",
"Y. c #ED8C52",
"T. c #EE8D52",
"R. c #EF8D52",
"E. c #E08A5A",
"W. c #E28B5A",
"Q. c #E38B5A",
"!. c #E28B5B",
"~. c #E38B5B",
"^. c #E48C5B",
"/. c #E58C5B",
"(. c #E58D5C",
"). c #E68D5C",
"_. c #EB8E59",
"`. c #E88E5D",
"'. c #E88F5D",
"]. c #E98F5D",
"[. c #F18D50",
"{. c #F08E53",
"}. c #F18E53",
"|. c #F18F53",
" X c #F38F52",
".X c #F28F53",
"XX c #F38F53",
"oX c #F38F54",
"OX c #EA905E",
"+X c #EB905E",
"@X c #EE915D",
"#X c #EC915E",
"$X c #ED925F",
"%X c #EE925F",
"&X c #F49053",
"*X c #F39054",
"=X c #F29055",
"-X c #F49054",
";X c #F59154",
":X c #F69155",
">X c #F69255",
",X c #F79255",
"<X c #FB9456",
"1X c #CB8260",
"2X c #DC8A61",
"3X c #F09360",
"4X c #F19460",
"5X c #777080",
"6X c #7A7180",
"7X c #7D7382",
"8X c #827684",
"9X c #877784",
"0X c #897986",
"qX c None",
/* pixels */
"qXqXqXqXqXqXqXqXqXqXqXqXqXqXqXqXqXqXqXqXqXqXqXqXqX~ qXqXqXqXqXqXqXqXqXqXqXqX~ qXqXqXqXqXqXqXqXqXqXqXqXqXqXqXqXqXqXqXqXqXqXqXqXqX",
"qXqXqXqXqXqXqXqXqXqXqXqXqXqXqXqXqXqXqXqXqXqXqXqXqX,XK qXqXqXqXqXqXqXqXqXqXK ,XqXqXqXqXqXqXqXqXqXqXqXqXqXqXqXqXqXqXqXqXqXqXqXqXqX",
"qXqXqXqXqXqXqXqXqXqXqXqXqXqXqXqXqXqXqXqXqXqXqXqXqX{.Y qXqXqXqXqXqXqXqXqXqXY {.qXqXqXqXqXqXqXqXqXqXqXqXqXqXqXqXqXqXqXqXqXqXqXqXqX",
"qXqXqXqXqXqXqXqXqXqXqXqXqXqXqXqXqXqXqXqXqXqXqXqXqX|.G qXqXqXqXqXqXqXqXqXqXG |.qXqXqXqXqXqXqXqXqXqXqXqXqXqXqXqXqXqXqXqXqXqXqXqXqX",
"qXqXqXqXqXqXqXqXqXqXqXqXqXqXqXqXqXqXqXqXqXqXqXqXqX{.~ qXqXqXqXqXqXqXqXqXqX~ {.qXqXqXqXqXqXqXqXqXqXqXqXqXqXqXqXqXqXqXqXqXqXqXqXqX",
"qXqXqXqXqXqXqXqXqXqXqXqXqXqXqXqXqXqXqXqXqXqXqXqXqX;XT qXqXqXqXqXqXqXqXqXqXT ;XqXqXqXqXqXqXqXqXqXqXqXqXqXqXqXqXqXqXqXqXqXqXqXqXqX",
"qXqXqXqXqXqXqXqXqXqXqXqXqXqXqXqXqXqXqXqXqXqXqXqX/ G qXqXqXqXqXqXqXqXqXqXqXqXF ( qXqXqXqXqXqXqXqXqXqXqXqXqXqXqXqXqXqXqXqXqXqXqXqX",
"qXqXqXqXqXqXqXqXqXqXqXqXqXqXqXqXqXqXqXqXqXqXqXS }.qXqXqXqXqXqXqXqXqXqXqXqXqXqX}.T qXqXqXqXqXqXqXqXqXqXqXqXqXqXqXqXqXqXqXqXqXqXqX",
"qXqXqXqXqXqXqXqXqXqXqXqXqXqXqXqXqXqXqXqXqXqXF *XT qXqXqXqXqXqXqXqXqXqXqXqXqXqXT *XF qXqXqXqXqXqXqXqXqXqXqXqXqXqXqXqXqXqXqXqXqXqX",
"qXqXqXqXqXqXqXqXqXqXqXqXqXqXqXqXqXqXqXqXqXqXG G qXqXqXqXqXqXqXqXqXqXqXqXqXqXqXqXG ~ qXqXqXqXqXqXqXqXqXqXqXqXqXqXqXqXqXqXqXqXqXqX",
"qXqXqXqXqXqXqXqXqXqXqXqXqXqXqXqXqXqXqXqXqXqXT J.G qXqXqXqXV.~ 1.d.8.%XqXqXqXqX~ J.T qXqXqXqXqXqXqXqXqXqXqXqXqXqXqXqXqXqXqXqXqXqX",
"qXqXqXqXqXqXqXqXqXqXqXqXqXqXqXqXqXqXqXqXqXqXqXT A.-XD qXL z.-.OXOX^.(.2.qXF -XA.G qXqXqXqXqXqXqXqXqXqXqXqXqXqXqXqXqXqXqXqXqXqXqX",
"qXqXqXqXqXqXqXqXqXqXqXqXqXqXqXqXqXqXqXqXqXqXqXqXqX~ D oXo.A :.y.2.y.i.h.=XC T qXqXqXqXqXqXqXqXqXqXqXqXqXqXqXqXqXqXqXqXqXqXqXqXqX",
"qXqXqXqXqXqXqXqXqXqXqXqXqXqXqXqXqXqXqXqXqXqXqXqXqXqXqX~ o.G <.y.y.y.a.~.%.qXqXqXqXqXqXqXqXqXqXqXqXqXqXqXqXqXqXqXqXqXqXqXqXqXqXqX",
"qXqXqXqXqXqXqXqXqXqXqXqXqXqXqXqXG F qXqXqXqXqXqXqXqXqXqXM.R 1.y.y.y.2.+XqXqXqXqXqXqXqXqXqXqXF G qXqXqXqXqXqXqXqXqXqXqXqXqXqXqXqX",
"qXqXqXqXqXqXqXqXqXqXqXqXqXqXqXqXG ;XR qXqXqXqXqXqXqXqXqXB.H 6.y.y.y.r.@XqXqXqXqXqXqXqXqXqXU ;XS qXqXqXqXqXqXqXqXqXqXqXqXqXqXqXqX",
"qXqXqXqXqXqXqXqXqXqXqXqXqXqXqXqXqXZ ~ qXqXqXqXqXqXqXqXj q.! 1.y.y.e.0.2Xk qXqXqXqXqXqXqXqX~ A qXqXqXqXqXqXqXqXqXqXqXqXqXqXqXqXqX",
"qXqXqXqXqXqXqXqXqXqXqXqXqXqXqXqXqXqX;XK qXqXqXqXqXqX* 8Xo d ;.r.e.0.1X+ 7X# qXqXqXqXqXqXK ;XqXqXqXqXqXqXqXqXqXqXqXqXqXqXqXqXqXqX",
"qXqXqXqXqXqXqXqXqXqXqXqXqXqXqXqXqXqXT N.qXqXqXqXqXqX@ & O f >.u.w.G.g   = ; qXqXqXqXqXqXN.T qXqXqXqXqXqXqXqXqXqXqXqXqXqXqXqXqXqX",
"qXqXqXqXqXqXqXqXqXqXqXqXqXqXqXqXqXqXqX}.F qXqXqXqXqX$ 0X6Xh [ u.w.F.l 5X9X% qXqXqXqXqXT }.qXqXqXqXqXqXqXqXqXqXqXqXqXqXqXqXqXqXqX",
"qXqXqXqXqXqXqXqXqXqXqXqXqXqXqXqXqXqXqXT U.qXqXqXqXqXqX- . P ) =.f.Q.#.X $ qXqXqXqXqXqXU.T qXqXqXqXqXqXqXqXqXqXqXqXqXqXqXqXqXqXqX",
"qXqXqXqXqXqXqXqXqXqXqXqXqXqXqXqXqXqXqXqXP.A qXqXqXqXqXqXqXqXt s n x qXqXqXqXqXqXqXqXT I.qXqXqXqXqXqXqXqXqXqXqXqXqXqXqXqXqXqXqXqX",
"qXqXqXqXqXqXqXqXqXqXqXqXqXqXqXqXqXqXqXqXS .XqXqXqXqXqXqXqXqXu 2 > 0 qXqXqXqXqXqXqXqX.XY qXqXqXqXqXqXqXqXqXqXqXqXqXqXqXqXqXqXqXqX",
"qXqXqXqXqXqXqXqXqXqXqXqXqXqXqXqXqXqXqXqXqXv.~ qXqXqXqXqXqXqXp 3 3 p qXqXqXqXqXqXqXT n.qXqXqXqXqXqXqXqXqXqXqXqXqXqXqXqXqXqXqXqXqX",
"qXqXqXqXqXqXqXqXqXqXqXqXqXqXqXqXqXqXqXqXqXT ;XqXqXqXqXqXqXqX8 w e 6 qXqXqXqXqXqXqX;X~ qXqXqXqXqXqXqXqXqXqXqXqXqXqXqXqXqXqXqXqXqX",
"qXqXqXqXqXqXqXqXqXqXqXqXqXqXqXqXqXqXqXqXqXqXK G qXqXqXqXqX^ N } ,.<.6.qXqXqXqXqXG L qXqXqXqXqXqXqXqXqXqXqXqXqXqXqXqXqXqXqXqXqXqX",
"qXqXqXqXqXqXqXqXqXqXqXqXqXqXqXqXqXqXqXqXqXqXG XXG qXqXqXT U.X.d.a.a.4Xy.qXqXqXG oXG qXqXqXqXqXqXqXqXqXqXqXqXqXqXqXqXqXqXqXqXqXqX",
"qXqXqXqXqXqXqXqXqXqXqXqXqXqXqXqXqXqXqXqXqXqXqXS .XT G T V.R 1.y.y.y.7.+X3.B G |.T qXqXqXqXqXqXqXqXqXqXqXqXqXqXqXqXqXqXqXqXqXqXqX",
"qXqXqXqXqXqXqXqXqXqXqXqXqXqXqXqXqXqXqXqXqXqXqXqXG ~ -XJ.C | y.y.y.y.y.s._.&X~ ~ qXqXqXqXqXqXqXqXqXqXqXqXqXqXqXqXqXqXqXqXqXqXqXqX",
"qXqXqXqXqXqXqXqXqXqXqXqXqXqXqXqXqXqXqXqXqXqXqXqXqXqXqXJ _ } y.y.y.y.y.!.*.qXqXqXqXqXqXqXqXqXqXqXqXqXqXqXqXqXqXqXqXqXqXqXqXqXqXqX",
"qXqXqXqXqXqXqXqXqXqXqXqXqXqXqXqXqXqXqXqXqXqXqXqXqXqXqXqXZ.D <.y.y.y.y.).qXqXqXqXqXqXqXqXqXqXqXqXqXqXqXqXqXqXqXqXqXqXqXqXqXqXqXqX",
"qXqXqXqXqXqXqXqXqXqXqXqXqXqXqXqXqXqXqXqXqXqXqXqXqXqXqXqXJ b. .y.y.y.].y.qXqXqXqXqXqXqXqXqXqXqXqXqXqXqXqXqXqXqXqXqXqXqXqXqXqXqXqX",
"qXqXqXqXqXqXqXqXqXqXqXqXqXqXqXqXqXqXqXqXqXqXqXqXY qXqXqXqXS.E y.y.p.#XqXqXqXqXY qXqXqXqXqXqXqXqXqXqXqXqXqXqXqXqXqXqXqXqXqXqXqXqX",
"qXqXqXqXqXqXqXqXqXqXqXqXqXqXqXqXqXqXqXqXqXqXqXD ,XD J qXqXD.} y.y.y.$XqXqXG G ,X~ qXqXqXqXqXqXqXqXqXqXqXqXqXqXqXqXqXqXqXqXqXqXqX",
"qXqXqXqXqXqXqXqXqXqXqXqXqXqXqXqXqXqXqXqXqXqXT Z.J D <XG R / R 7.y.7.E.&.V <XG J C.G qXqXqXqXqXqXqXqXqXqXqXqXqXqXqXqXqXqXqXqXqXqX",
"qXqXqXqXqXqXqXqXqXqXqXqXqXqXqXqXqXqXqXqXqXT U.qXqXqXQ C Y.T C &.s.u.5.T.G T qXqXqXU.^ qXqXqXqXqXqXqXqXqXqXqXqXqXqXqXqXqXqXqXqXqX",
"qXqXqXqXqXqXqXqXqXqXqXqXqXqXqXqXqXqXqXqXT U.qXqXqXqXqXqXY G O.D ,.W.' I qXqXqXqXqXqXU.G qXqXqXqXqXqXqXqXqXqXqXqXqXqXqXqXqXqXqXqX",
"qXqXqXqXqXqXqXqXqXqXqXqXqXqXqXqXqXqXqXT U.qXqXqXqXqXqXqXqXqX] ` ;.j.qXqXqXqXqXqXqXqXqXU.~ qXqXqXqXqXqXqXqXqXqXqXqXqXqXqXqXqXqXqX",
"qXqXqXqXqXqXqXqXqXqXqXqXqXqXqXqXqXqXT U.qXqXqXqXqXqXqXqXqXqXr b v z qXqXqXqXqXqXqXqXqXqXU.~ qXqXqXqXqXqXqXqXqXqXqXqXqXqXqXqXqXqX",
"qXqXqXqXqXqXqXqXqXqXqXqXqXqXqXqXqXD U.qXqXqXqXqXqXqXqXqXqXe u , > y 9 qXqXqXqXqXqXqXqXqXqXU.G qXqXqXqXqXqXqXqXqXqXqXqXqXqXqXqXqX",
"qXqXqXqXqXqXqXqXqXqXqXqXqXqXqXqXD U.qXqXqXqXqXqXqXqXqXR  Xa 4 6 6 5 i [.^ qXqXqXqXqXqXqXqXqXU.G qXqXqXqXqXqXqXqXqXqXqXqXqXqXqXqX",
"qXqXqXqXqXqXqXqXqXqXqXqXqXqXqXD U.qXqXqXqXqXqXqXT D :Xm.K 1 q < < 7 : B n.:XT K qXqXqXqXqXqXqXU.G qXqXqXqXqXqXqXqXqXqXqXqXqXqXqX",
"qXqXqXqXqXqXqXqXqXqXqXqXqXqXD U.qXqXqXqXqXqXG x.:XD G qXqXm M c c +.$.qXqXY K :Xc.T qXqXqXqXqXqXU.G qXqXqXqXqXqXqXqXqXqXqXqXqXqX",
"qXqXqXqXqXqXqXqXqXqXqXqXqXG U.qXqXqXqXqXqXC.I.G qXqXqXqXT M.^ { 4.k.(.1.qXqXqXqXJ I.C.qXqXqXqXqXqXU.D qXqXqXqXqXqXqXqXqXqXqXqXqX",
"qXqXqXqXqXqXqXqXqXqXqXqXG R.qXqXqXqXqXqXG T.qXqXqXqXqXK x.Z R 1.u.y.7.).y.qXqXqXqXqXR.G qXqXqXqXqXqXR.G qXqXqXqXqXqXqXqXqXqXqXqX",
"qXqXqXqXqXqXqXqXqXqXqXqXL qXqXqXqXqXqXqXT T qXqXqXqXD @.V G ,.u.y.y.y.e.^.y.qXqXqXqXD T qXqXqXqXqXqXqXL qXqXqXqXqXqXqXqXqXqXqXqX",
"qXqXqXqXqXqXqXqXqXqXqXqXqXqXqXqXqXqXqXqX-XF qXqXqXqXJ.G A ..u.y.y.y.y.y.p.$X6.qXqXqXF -XqXqXqXqXqXqXqXqXqXqXqXqXqXqXqXqXqXqXqXqX",
"qXqXqXqXqXqXqXqXqXqXqXqXqXqXqXqXqXqXqXT I.qXqXqXqX~ O.G C >.u.y.y.y.y.y.y.W.y.qXqXqXqXI.T qXqXqXqXqXqXqXqXqXqXqXqXqXqXqXqXqXqXqX",
"qXqXqXqXqXqXqXqXqXqXqXqXqXqXqXqXqXqXqXO.G qXqXqXqXT K T J 1.y.y.y.y.y.y.p.y.y.qXqXqXqXG O.qXqXqXqXqXqXqXqXqXqXqXqXqXqXqXqXqXqXqX",
"qXqXqXqXqXqXqXqXqXqXqXqXqXqXqXqXqXqXqX>XqXqXqXqXqX/ D A W 7.y.y.y.y.y.y.y.p.g.qXqXqXqXqX>XqXqXqXqXqXqXqXqXqXqXqXqXqXqXqXqXqXqXqX",
"qXqXqXqXqXqXqXqXqXqXqXqXqXqXqXqXqXqXY @.qXqXqXqXqX/ D Z W 7.y.y.y.y.y.y.y.y.d.qXqXqXqXqX@.Y qXqXqXqXqXqXqXqXqXqXqXqXqXqXqXqXqXqX",
"qXqXqXqXqXqXqXqXqXqXqXqXqXqXqXqXqXqXP.D qXqXqXqXqXJ G T J 1.y.y.y.y.y.y.p.g.y.qXqXqXqXqXD P.qXqXqXqXqXqXqXqXqXqXqXqXqXqXqXqXqXqX",
"qXqXqXqXqXqXqXqXqXqXqXqXqXqXqXqXqXD -XqXqXqXqXqXqXG / L G <.y.y.y.y.y.y.y.!.e.qXqXqXqXqXqX-XT qXqXqXqXqXqXqXqXqXqXqXqXqXqXqXqXqX",
"qXqXqXqXqXqXqXqXqXqXqXqXqXqXqXqXqXF G qXqXqXqXqXqXG M.G V *.u.y.y.y.y.y.e.OXw.qXqXqXqXqXqXG F qXqXqXqXqXqXqXqXqXqXqXqXqXqXqXqXqX",
"qXqXqXqXqXqXqXqXqXqXqXqXqXqXqXqXqXXXU qXqXqXqXqXqXqXA.T A } u.y.y.y.y.y.e.`.qXqXqXqXqXqXqXR XXqXqXqXqXqXqXqXqXqXqXqXqXqXqXqXqXqX",
"qXqXqXqXqXqXqXqXqXqXqXqXqXqXqXqXL Y.qXqXqXqXqXqXqXqXT o.G G ,.y.y.y.y.y./.t.qXqXqXqXqXqXqXqXY.L qXqXqXqXqXqXqXqXqXqXqXqXqXqXqXqX",
"qXqXqXqXqXqXqXqXqXqXqXqXqXqXqXqX/ D qXqXqXqXqXqXqXqXqXJ.G C } u.y.y.y.e.'.qXqXqXqXqXqXqXqXqXD / qXqXqXqXqXqXqXqXqXqXqXqXqXqXqXqX",
"qXqXqXqXqXqXqXqXqXqXqXqXqXqXqXqX>X^ qXqXqXqXqXqXqXqXqXH K.T V %.s.8.y.3X9.qXqXqXqXqXqXqXqXqX^ >XqXqXqXqXqXqXqXqXqXqXqXqXqXqXqXqX",
"qXqXqXqXqXqXqXqXqXqXqXqXqXqXqXG m.qXqXqXqXqXqXqXqXqXqXqXT L.G C *.s.3Xy.qXqXqXqXqXqXqXqXqXqXqXm.G qXqXqXqXqXqXqXqXqXqXqXqXqXqXqX",
"qXqXqXqXqXqXqXqXqXqXqXqXqXqXqXJ.H qXqXqXqXqXqXqXqXqXqXqXqXF N.v.l.H.u.qXqXqXqXqXqXqXqXqXqXqXqXH J.qXqXqXqXqXqXqXqXqXqXqXqXqXqXqX",
"qXqXqXqXqXqXqXqXqXqXqXqXqXqXK *XqXqXqXqXqXqXqXqXqXqXqXqXqXqXqXG Y qXqXqXqXqXqXqXqXqXqXqXqXqXqXqX*XC qXqXqXqXqXqXqXqXqXqXqXqXqXqX",
"qXqXqXqXqXqXqXqXqXqXqXqXqXqXG D qXqXqXqXqXqXqXqXqXqXqXqXqXqXqXqXqXqXqXqXqXqXqXqXqXqXqXqXqXqXqXqXL G qXqXqXqXqXqXqXqXqXqXqXqXqXqX",
"qXqXqXqXqXqXqXqXqXqXqXqXG oXO.qXqXqXqXqXqXqXqXqXqXqXqXqXqXqXqXqXqXqXqXqXqXqXqXqXqXqXqXqXqXqXqXqXqXO.*XG qXqXqXqXqXqXqXqXqXqXqXqX",
"qXqXqXqXqXqXqXqXqXqXqXqXS J qXqXqXqXqXqXqXqXqXqXqXqXqXqXqXqXqXqXqXqXqXqXqXqXqXqXqXqXqXqXqXqXqXqXqXqXJ G qXqXqXqXqXqXqXqXqXqXqXqX"
};
